  0
SECTION
  2
HEADER
  9
$ACADVER
  1
AC1009
  9
$FILLMODE
 70
0
  9
$EXTMIN
 10
-10.7527
 20
-1.4262
 30
0.0000
  9
$EXTMAX
 10
77.0478
 20
125.7503
 30
0.0000
  0
ENDSEC
  0
SECTION
  2
TABLES
  0
TABLE
  2
LTYPE
 70
1
  0
LTYPE
  2
CONTINUOUS
 70
64
  3
Solid line
 72
65
 73
0
 40
0
  0
ENDTAB
  0
TABLE
  2
LAYER
 70
255
  0
LAYER
  2
163
 70
64
 62
253
  6
CONTINUOUS
  0
ENDTAB
  0
ENDSEC
  0
SECTION
  2
BLOCKS
  0
BLOCK
  8
0
  2
RECT
 70
64
 10
0.0000
 20
0.0000
 30
0.0000
  3
RECT
  0
SOLID
  8
0
 10
-0.5000
 20
-0.5000
 30
0.0000
 11
0.5000
 21
-0.5000
 31
0.0000
 12
-0.5000
 22
0.5000
 32
0.0000
 13
0.5000
 23
0.5000
 33
0.0000
  0
ENDBLK
  8
0
  0
BLOCK
  8
0
  2
PIE
 70
64
 10
0.0000
 20
0.0000
 30
0.0000
  3
PIE
  0
CIRCLE
  8
0
 10
0.0000
 20
0.0000
 30
0.0000
 40
0.5000
  0
ENDBLK
  8
0
  0
BLOCK
  8
0
  2
OCTAGONP
 70
64
 10
0.0000
 20
0.0000
 30
0.0000
  3
OCTAGONP
  0
POLYLINE
  8
0
 66
1
 10
0.0000
 20
0.0000
 30
0.0000
 40
0.0000
 41
0.0000
 70
1
  0
VERTEX
  8
0
 10
-0.5000
 20
-0.2071
 30
0.0000
  0
VERTEX
  8
0
 10
-0.5000
 20
0.2071
 30
0.0000
  0
VERTEX
  8
0
 10
-0.2071
 20
0.5000
 30
0.0000
  0
VERTEX
  8
0
 10
0.2071
 20
0.5000
 30
0.0000
  0
VERTEX
  8
0
 10
0.5000
 20
0.2071
 30
0.0000
  0
VERTEX
  8
0
 10
0.5000
 20
-0.2071
 30
0.0000
  0
VERTEX
  8
0
 10
0.2071
 20
-0.5000
 30
0.0000
  0
VERTEX
  8
0
 10
-0.2071
 20
-0.5000
 30
0.0000
  0
SEQEND
  8
0
  0
ENDBLK
  8
0
  0
BLOCK
  8
0
  2
SQUAREP
 70
64
 10
0.0000
 20
0.0000
 30
0.0000
  3
SQUAREP
  0
SOLID
  8
0
 10
-0.5000
 20
-0.5000
 30
0.0000
 11
0.5000
 21
-0.5000
 31
0.0000
 12
-0.5000
 22
0.5000
 32
0.0000
 13
0.5000
 23
0.5000
 33
0.0000
  0
ENDBLK
  8
0
  0
BLOCK
  8
0
  2
ROUNDP
 70
64
 10
0.0000
 20
0.0000
 30
0.0000
  3
ROUNDP
  0
CIRCLE
  8
0
 10
0.0000
 20
0.0000
 30
0.0000
 40
0.5000
  0
ENDBLK
  8
0
  0
BLOCK
  8
0
  2
ANNULUSP
 70
64
 10
0.0000
 20
0.0000
 30
0.0000
  3
ANNULUSP
  0
CIRCLE
  8
0
 10
0.0000
 20
0.0000
 30
0.0000
 40
0.5000
  0
ENDBLK
  8
0
  0
BLOCK
  8
0
  2
THERMALP
 70
64
 10
0.0000
 20
0.0000
 30
0.0000
  3
THERMALP
  0
LINE
  8
0
 10
-0.2379
 20
0.4500
 30
0.0000
 11
0.2379
 21
0.4500
 31
0.0000
  0
LINE
  8
0
 10
0.4500
 20
0.2379
 30
0.0000
 11
0.4500
 21
-0.2379
 31
0.0000
  0
LINE
  8
0
 10
0.2379
 20
-0.4500
 30
0.0000
 11
-0.2379
 21
-0.4500
 31
0.0000
  0
LINE
  8
0
 10
-0.4500
 20
-0.2379
 30
0.0000
 11
-0.4500
 21
0.2379
 31
0.0000
  0
ENDBLK
  8
0
  0
BLOCK
  8
0
  2
OCTAGONV
 70
64
 10
0.0000
 20
0.0000
 30
0.0000
  3
OCTAGONV
  0
POLYLINE
  8
0
 66
1
 10
0.0000
 20
0.0000
 30
0.0000
 40
0.0000
 41
0.0000
 70
1
  0
VERTEX
  8
0
 10
-0.5000
 20
-0.2071
 30
0.0000
  0
VERTEX
  8
0
 10
-0.5000
 20
0.2071
 30
0.0000
  0
VERTEX
  8
0
 10
-0.2071
 20
0.5000
 30
0.0000
  0
VERTEX
  8
0
 10
0.2071
 20
0.5000
 30
0.0000
  0
VERTEX
  8
0
 10
0.5000
 20
0.2071
 30
0.0000
  0
VERTEX
  8
0
 10
0.5000
 20
-0.2071
 30
0.0000
  0
VERTEX
  8
0
 10
0.2071
 20
-0.5000
 30
0.0000
  0
VERTEX
  8
0
 10
-0.2071
 20
-0.5000
 30
0.0000
  0
SEQEND
  8
0
  0
ENDBLK
  8
0
  0
BLOCK
  8
0
  2
SQUAREV
 70
64
 10
0.0000
 20
0.0000
 30
0.0000
  3
SQUAREV
  0
SOLID
  8
0
 10
-0.5000
 20
-0.5000
 30
0.0000
 11
0.5000
 21
-0.5000
 31
0.0000
 12
-0.5000
 22
0.5000
 32
0.0000
 13
0.5000
 23
0.5000
 33
0.0000
  0
ENDBLK
  8
0
  0
BLOCK
  8
0
  2
ROUNDV
 70
64
 10
0.0000
 20
0.0000
 30
0.0000
  3
ROUNDV
  0
CIRCLE
  8
0
 10
0.0000
 20
0.0000
 30
0.0000
 40
0.5000
  0
ENDBLK
  8
0
  0
BLOCK
  8
0
  2
ANNULUSV
 70
64
 10
0.0000
 20
0.0000
 30
0.0000
  3
ANNULUSV
  0
CIRCLE
  8
0
 10
0.0000
 20
0.0000
 30
0.0000
 40
0.5000
  0
ENDBLK
  8
0
  0
BLOCK
  8
0
  2
THERMALV
 70
64
 10
0.0000
 20
0.0000
 30
0.0000
  3
THERMALV
  0
LINE
  8
0
 10
-0.2379
 20
0.4500
 30
0.0000
 11
0.2379
 21
0.4500
 31
0.0000
  0
LINE
  8
0
 10
0.4500
 20
0.2379
 30
0.0000
 11
0.4500
 21
-0.2379
 31
0.0000
  0
LINE
  8
0
 10
0.2379
 20
-0.4500
 30
0.0000
 11
-0.2379
 21
-0.4500
 31
0.0000
  0
LINE
  8
0
 10
-0.4500
 20
-0.2379
 30
0.0000
 11
-0.4500
 21
0.2379
 31
0.0000
  0
ENDBLK
  8
0
  0
BLOCK
  8
0
  2
LONGP100
 70
64
 10
0.0000
 20
0.0000
 30
0.0000
  3
LONGP100
  0
POLYLINE
  8
0
 66
1
 10
0.0000
 20
0.0000
 30
0.0000
 40
0.0000
 41
0.0000
 70
1
  0
VERTEX
  8
0
 10
-0.5000
 20
-0.5000
 30
0.0000
  0
VERTEX
  8
0
 10
0.5000
 20
-0.5000
 30
0.0000
 42
1.0000
  0
VERTEX
  8
0
 10
0.5000
 20
0.5000
 30
0.0000
  0
VERTEX
  8
0
 10
-0.5000
 20
0.5000
 30
0.0000
 42
1.0000
  0
SEQEND
  8
0
  0
ENDBLK
  8
0
  0
ENDSEC
  0
SECTION
  2
ENTITIES
  0
LINE
  8
163
 10
58.4200
 20
0.0000
 30
0.0000
 11
58.4200
 21
13.9700
 31
0.0000
  0
LINE
  8
163
 10
58.4200
 20
13.9700
 30
0.0000
 11
52.0700
 21
13.9700
 31
0.0000
  0
LINE
  8
163
 10
52.0700
 20
13.9700
 30
0.0000
 11
52.0700
 21
21.5900
 31
0.0000
  0
LINE
  8
163
 10
52.0700
 20
21.5900
 30
0.0000
 11
55.8800
 21
21.5900
 31
0.0000
  0
LINE
  8
163
 10
58.4200
 20
53.3400
 30
0.0000
 11
58.4200
 21
71.1200
 31
0.0000
  0
LINE
  8
163
 10
58.4200
 20
101.6000
 30
0.0000
 11
58.4200
 21
107.9500
 31
0.0000
  0
LINE
  8
163
 10
58.4200
 20
107.9500
 30
0.0000
 11
33.0200
 21
107.9500
 31
0.0000
  0
LINE
  8
163
 10
33.0200
 20
107.9500
 30
0.0000
 11
33.0200
 21
101.6000
 31
0.0000
  0
LINE
  8
163
 10
33.0200
 20
101.6000
 30
0.0000
 11
25.4000
 21
101.6000
 31
0.0000
  0
LINE
  8
163
 10
25.4000
 20
101.6000
 30
0.0000
 11
25.4000
 21
107.9500
 31
0.0000
  0
LINE
  8
163
 10
25.4000
 20
107.9500
 30
0.0000
 11
0.0000
 21
107.9500
 31
0.0000
  0
LINE
  8
163
 10
0.0000
 20
107.9500
 30
0.0000
 11
0.0000
 21
101.6000
 31
0.0000
  0
LINE
  8
163
 10
0.0000
 20
76.2000
 30
0.0000
 11
0.0000
 21
73.6600
 31
0.0000
  0
LINE
  8
163
 10
0.0000
 20
66.0400
 30
0.0000
 11
0.0000
 21
21.5900
 31
0.0000
  0
LINE
  8
163
 10
0.0000
 20
21.5900
 30
0.0000
 11
6.3500
 21
21.5900
 31
0.0000
  0
LINE
  8
163
 10
6.3500
 20
21.5900
 30
0.0000
 11
6.3500
 21
13.9700
 31
0.0000
  0
LINE
  8
163
 10
6.3500
 20
13.9700
 30
0.0000
 11
0.0000
 21
13.9700
 31
0.0000
  0
LINE
  8
163
 10
0.0000
 20
13.9700
 30
0.0000
 11
0.0000
 21
0.0000
 31
0.0000
  0
LINE
  8
163
 10
0.0000
 20
0.0000
 30
0.0000
 11
58.4200
 21
0.0000
 31
0.0000
  0
LINE
  8
163
 10
58.4200
 20
71.1200
 30
0.0000
 11
55.8800
 21
71.1200
 31
0.0000
  0
LINE
  8
163
 10
55.8800
 20
71.1200
 30
0.0000
 11
55.8800
 21
101.6000
 31
0.0000
  0
LINE
  8
163
 10
55.8800
 20
101.6000
 30
0.0000
 11
58.4200
 21
101.6000
 31
0.0000
  0
LINE
  8
163
 10
0.0000
 20
101.6000
 30
0.0000
 11
2.5400
 21
101.6000
 31
0.0000
  0
LINE
  8
163
 10
2.5400
 20
101.6000
 30
0.0000
 11
2.5400
 21
76.2000
 31
0.0000
  0
LINE
  8
163
 10
2.5400
 20
76.2000
 30
0.0000
 11
0.0000
 21
76.2000
 31
0.0000
  0
LINE
  8
163
 10
55.8800
 20
21.5900
 30
0.0000
 11
55.8800
 21
53.3400
 31
0.0000
  0
LINE
  8
163
 10
55.8800
 20
53.3400
 30
0.0000
 11
58.4200
 21
53.3400
 31
0.0000
  0
LINE
  8
163
 10
0.0000
 20
66.0400
 30
0.0000
 11
5.0800
 21
66.0400
 31
0.0000
  0
LINE
  8
163
 10
5.0800
 20
66.0400
 30
0.0000
 11
5.0800
 21
73.6600
 31
0.0000
  0
LINE
  8
163
 10
5.0800
 20
73.6600
 30
0.0000
 11
0.0000
 21
73.6600
 31
0.0000
  0
CIRCLE
  8
163
 10
2.5400
 20
105.4100
 30
0.0000
 40
1.5050
  0
CIRCLE
  8
163
 10
55.8800
 20
105.4100
 30
0.0000
 40
1.5050
  0
CIRCLE
  8
163
 10
55.8800
 20
2.5400
 30
0.0000
 40
1.5050
  0
CIRCLE
  8
163
 10
2.5400
 20
2.5400
 30
0.0000
 40
1.5050
  0
ENDSEC
  0
EOF
