G04 EAGLE Gerber RS-274X export*
G75*
%MOMM*%
%FSLAX34Y34*%
%LPD*%
%INPlexiglass Bottom*%
%IPPOS*%
%AMOC8*
5,1,8,0,0,1.08239X$1,22.5*%
G01*
%ADD10C,0.076200*%


D10*
X10350Y1054100D02*
X10355Y1054469D01*
X10368Y1054838D01*
X10391Y1055207D01*
X10422Y1055575D01*
X10463Y1055942D01*
X10513Y1056308D01*
X10572Y1056673D01*
X10639Y1057036D01*
X10716Y1057397D01*
X10801Y1057757D01*
X10895Y1058114D01*
X10998Y1058469D01*
X11110Y1058821D01*
X11230Y1059170D01*
X11358Y1059516D01*
X11496Y1059859D01*
X11641Y1060199D01*
X11795Y1060535D01*
X11957Y1060867D01*
X12127Y1061195D01*
X12305Y1061518D01*
X12491Y1061837D01*
X12685Y1062152D01*
X12886Y1062461D01*
X13095Y1062766D01*
X13312Y1063065D01*
X13535Y1063359D01*
X13766Y1063648D01*
X14004Y1063930D01*
X14249Y1064207D01*
X14500Y1064478D01*
X14758Y1064742D01*
X15022Y1065000D01*
X15293Y1065251D01*
X15570Y1065496D01*
X15852Y1065734D01*
X16141Y1065965D01*
X16435Y1066188D01*
X16734Y1066405D01*
X17039Y1066614D01*
X17348Y1066815D01*
X17663Y1067009D01*
X17982Y1067195D01*
X18305Y1067373D01*
X18633Y1067543D01*
X18965Y1067705D01*
X19301Y1067859D01*
X19641Y1068004D01*
X19984Y1068142D01*
X20330Y1068270D01*
X20679Y1068390D01*
X21031Y1068502D01*
X21386Y1068605D01*
X21743Y1068699D01*
X22103Y1068784D01*
X22464Y1068861D01*
X22827Y1068928D01*
X23192Y1068987D01*
X23558Y1069037D01*
X23925Y1069078D01*
X24293Y1069109D01*
X24662Y1069132D01*
X25031Y1069145D01*
X25400Y1069150D01*
X25769Y1069145D01*
X26138Y1069132D01*
X26507Y1069109D01*
X26875Y1069078D01*
X27242Y1069037D01*
X27608Y1068987D01*
X27973Y1068928D01*
X28336Y1068861D01*
X28697Y1068784D01*
X29057Y1068699D01*
X29414Y1068605D01*
X29769Y1068502D01*
X30121Y1068390D01*
X30470Y1068270D01*
X30816Y1068142D01*
X31159Y1068004D01*
X31499Y1067859D01*
X31835Y1067705D01*
X32167Y1067543D01*
X32495Y1067373D01*
X32818Y1067195D01*
X33137Y1067009D01*
X33452Y1066815D01*
X33761Y1066614D01*
X34066Y1066405D01*
X34365Y1066188D01*
X34659Y1065965D01*
X34948Y1065734D01*
X35230Y1065496D01*
X35507Y1065251D01*
X35778Y1065000D01*
X36042Y1064742D01*
X36300Y1064478D01*
X36551Y1064207D01*
X36796Y1063930D01*
X37034Y1063648D01*
X37265Y1063359D01*
X37488Y1063065D01*
X37705Y1062766D01*
X37914Y1062461D01*
X38115Y1062152D01*
X38309Y1061837D01*
X38495Y1061518D01*
X38673Y1061195D01*
X38843Y1060867D01*
X39005Y1060535D01*
X39159Y1060199D01*
X39304Y1059859D01*
X39442Y1059516D01*
X39570Y1059170D01*
X39690Y1058821D01*
X39802Y1058469D01*
X39905Y1058114D01*
X39999Y1057757D01*
X40084Y1057397D01*
X40161Y1057036D01*
X40228Y1056673D01*
X40287Y1056308D01*
X40337Y1055942D01*
X40378Y1055575D01*
X40409Y1055207D01*
X40432Y1054838D01*
X40445Y1054469D01*
X40450Y1054100D01*
X40445Y1053731D01*
X40432Y1053362D01*
X40409Y1052993D01*
X40378Y1052625D01*
X40337Y1052258D01*
X40287Y1051892D01*
X40228Y1051527D01*
X40161Y1051164D01*
X40084Y1050803D01*
X39999Y1050443D01*
X39905Y1050086D01*
X39802Y1049731D01*
X39690Y1049379D01*
X39570Y1049030D01*
X39442Y1048684D01*
X39304Y1048341D01*
X39159Y1048001D01*
X39005Y1047665D01*
X38843Y1047333D01*
X38673Y1047005D01*
X38495Y1046682D01*
X38309Y1046363D01*
X38115Y1046048D01*
X37914Y1045739D01*
X37705Y1045434D01*
X37488Y1045135D01*
X37265Y1044841D01*
X37034Y1044552D01*
X36796Y1044270D01*
X36551Y1043993D01*
X36300Y1043722D01*
X36042Y1043458D01*
X35778Y1043200D01*
X35507Y1042949D01*
X35230Y1042704D01*
X34948Y1042466D01*
X34659Y1042235D01*
X34365Y1042012D01*
X34066Y1041795D01*
X33761Y1041586D01*
X33452Y1041385D01*
X33137Y1041191D01*
X32818Y1041005D01*
X32495Y1040827D01*
X32167Y1040657D01*
X31835Y1040495D01*
X31499Y1040341D01*
X31159Y1040196D01*
X30816Y1040058D01*
X30470Y1039930D01*
X30121Y1039810D01*
X29769Y1039698D01*
X29414Y1039595D01*
X29057Y1039501D01*
X28697Y1039416D01*
X28336Y1039339D01*
X27973Y1039272D01*
X27608Y1039213D01*
X27242Y1039163D01*
X26875Y1039122D01*
X26507Y1039091D01*
X26138Y1039068D01*
X25769Y1039055D01*
X25400Y1039050D01*
X25031Y1039055D01*
X24662Y1039068D01*
X24293Y1039091D01*
X23925Y1039122D01*
X23558Y1039163D01*
X23192Y1039213D01*
X22827Y1039272D01*
X22464Y1039339D01*
X22103Y1039416D01*
X21743Y1039501D01*
X21386Y1039595D01*
X21031Y1039698D01*
X20679Y1039810D01*
X20330Y1039930D01*
X19984Y1040058D01*
X19641Y1040196D01*
X19301Y1040341D01*
X18965Y1040495D01*
X18633Y1040657D01*
X18305Y1040827D01*
X17982Y1041005D01*
X17663Y1041191D01*
X17348Y1041385D01*
X17039Y1041586D01*
X16734Y1041795D01*
X16435Y1042012D01*
X16141Y1042235D01*
X15852Y1042466D01*
X15570Y1042704D01*
X15293Y1042949D01*
X15022Y1043200D01*
X14758Y1043458D01*
X14500Y1043722D01*
X14249Y1043993D01*
X14004Y1044270D01*
X13766Y1044552D01*
X13535Y1044841D01*
X13312Y1045135D01*
X13095Y1045434D01*
X12886Y1045739D01*
X12685Y1046048D01*
X12491Y1046363D01*
X12305Y1046682D01*
X12127Y1047005D01*
X11957Y1047333D01*
X11795Y1047665D01*
X11641Y1048001D01*
X11496Y1048341D01*
X11358Y1048684D01*
X11230Y1049030D01*
X11110Y1049379D01*
X10998Y1049731D01*
X10895Y1050086D01*
X10801Y1050443D01*
X10716Y1050803D01*
X10639Y1051164D01*
X10572Y1051527D01*
X10513Y1051892D01*
X10463Y1052258D01*
X10422Y1052625D01*
X10391Y1052993D01*
X10368Y1053362D01*
X10355Y1053731D01*
X10350Y1054100D01*
X543750Y1054100D02*
X543755Y1054469D01*
X543768Y1054838D01*
X543791Y1055207D01*
X543822Y1055575D01*
X543863Y1055942D01*
X543913Y1056308D01*
X543972Y1056673D01*
X544039Y1057036D01*
X544116Y1057397D01*
X544201Y1057757D01*
X544295Y1058114D01*
X544398Y1058469D01*
X544510Y1058821D01*
X544630Y1059170D01*
X544758Y1059516D01*
X544896Y1059859D01*
X545041Y1060199D01*
X545195Y1060535D01*
X545357Y1060867D01*
X545527Y1061195D01*
X545705Y1061518D01*
X545891Y1061837D01*
X546085Y1062152D01*
X546286Y1062461D01*
X546495Y1062766D01*
X546712Y1063065D01*
X546935Y1063359D01*
X547166Y1063648D01*
X547404Y1063930D01*
X547649Y1064207D01*
X547900Y1064478D01*
X548158Y1064742D01*
X548422Y1065000D01*
X548693Y1065251D01*
X548970Y1065496D01*
X549252Y1065734D01*
X549541Y1065965D01*
X549835Y1066188D01*
X550134Y1066405D01*
X550439Y1066614D01*
X550748Y1066815D01*
X551063Y1067009D01*
X551382Y1067195D01*
X551705Y1067373D01*
X552033Y1067543D01*
X552365Y1067705D01*
X552701Y1067859D01*
X553041Y1068004D01*
X553384Y1068142D01*
X553730Y1068270D01*
X554079Y1068390D01*
X554431Y1068502D01*
X554786Y1068605D01*
X555143Y1068699D01*
X555503Y1068784D01*
X555864Y1068861D01*
X556227Y1068928D01*
X556592Y1068987D01*
X556958Y1069037D01*
X557325Y1069078D01*
X557693Y1069109D01*
X558062Y1069132D01*
X558431Y1069145D01*
X558800Y1069150D01*
X559169Y1069145D01*
X559538Y1069132D01*
X559907Y1069109D01*
X560275Y1069078D01*
X560642Y1069037D01*
X561008Y1068987D01*
X561373Y1068928D01*
X561736Y1068861D01*
X562097Y1068784D01*
X562457Y1068699D01*
X562814Y1068605D01*
X563169Y1068502D01*
X563521Y1068390D01*
X563870Y1068270D01*
X564216Y1068142D01*
X564559Y1068004D01*
X564899Y1067859D01*
X565235Y1067705D01*
X565567Y1067543D01*
X565895Y1067373D01*
X566218Y1067195D01*
X566537Y1067009D01*
X566852Y1066815D01*
X567161Y1066614D01*
X567466Y1066405D01*
X567765Y1066188D01*
X568059Y1065965D01*
X568348Y1065734D01*
X568630Y1065496D01*
X568907Y1065251D01*
X569178Y1065000D01*
X569442Y1064742D01*
X569700Y1064478D01*
X569951Y1064207D01*
X570196Y1063930D01*
X570434Y1063648D01*
X570665Y1063359D01*
X570888Y1063065D01*
X571105Y1062766D01*
X571314Y1062461D01*
X571515Y1062152D01*
X571709Y1061837D01*
X571895Y1061518D01*
X572073Y1061195D01*
X572243Y1060867D01*
X572405Y1060535D01*
X572559Y1060199D01*
X572704Y1059859D01*
X572842Y1059516D01*
X572970Y1059170D01*
X573090Y1058821D01*
X573202Y1058469D01*
X573305Y1058114D01*
X573399Y1057757D01*
X573484Y1057397D01*
X573561Y1057036D01*
X573628Y1056673D01*
X573687Y1056308D01*
X573737Y1055942D01*
X573778Y1055575D01*
X573809Y1055207D01*
X573832Y1054838D01*
X573845Y1054469D01*
X573850Y1054100D01*
X573845Y1053731D01*
X573832Y1053362D01*
X573809Y1052993D01*
X573778Y1052625D01*
X573737Y1052258D01*
X573687Y1051892D01*
X573628Y1051527D01*
X573561Y1051164D01*
X573484Y1050803D01*
X573399Y1050443D01*
X573305Y1050086D01*
X573202Y1049731D01*
X573090Y1049379D01*
X572970Y1049030D01*
X572842Y1048684D01*
X572704Y1048341D01*
X572559Y1048001D01*
X572405Y1047665D01*
X572243Y1047333D01*
X572073Y1047005D01*
X571895Y1046682D01*
X571709Y1046363D01*
X571515Y1046048D01*
X571314Y1045739D01*
X571105Y1045434D01*
X570888Y1045135D01*
X570665Y1044841D01*
X570434Y1044552D01*
X570196Y1044270D01*
X569951Y1043993D01*
X569700Y1043722D01*
X569442Y1043458D01*
X569178Y1043200D01*
X568907Y1042949D01*
X568630Y1042704D01*
X568348Y1042466D01*
X568059Y1042235D01*
X567765Y1042012D01*
X567466Y1041795D01*
X567161Y1041586D01*
X566852Y1041385D01*
X566537Y1041191D01*
X566218Y1041005D01*
X565895Y1040827D01*
X565567Y1040657D01*
X565235Y1040495D01*
X564899Y1040341D01*
X564559Y1040196D01*
X564216Y1040058D01*
X563870Y1039930D01*
X563521Y1039810D01*
X563169Y1039698D01*
X562814Y1039595D01*
X562457Y1039501D01*
X562097Y1039416D01*
X561736Y1039339D01*
X561373Y1039272D01*
X561008Y1039213D01*
X560642Y1039163D01*
X560275Y1039122D01*
X559907Y1039091D01*
X559538Y1039068D01*
X559169Y1039055D01*
X558800Y1039050D01*
X558431Y1039055D01*
X558062Y1039068D01*
X557693Y1039091D01*
X557325Y1039122D01*
X556958Y1039163D01*
X556592Y1039213D01*
X556227Y1039272D01*
X555864Y1039339D01*
X555503Y1039416D01*
X555143Y1039501D01*
X554786Y1039595D01*
X554431Y1039698D01*
X554079Y1039810D01*
X553730Y1039930D01*
X553384Y1040058D01*
X553041Y1040196D01*
X552701Y1040341D01*
X552365Y1040495D01*
X552033Y1040657D01*
X551705Y1040827D01*
X551382Y1041005D01*
X551063Y1041191D01*
X550748Y1041385D01*
X550439Y1041586D01*
X550134Y1041795D01*
X549835Y1042012D01*
X549541Y1042235D01*
X549252Y1042466D01*
X548970Y1042704D01*
X548693Y1042949D01*
X548422Y1043200D01*
X548158Y1043458D01*
X547900Y1043722D01*
X547649Y1043993D01*
X547404Y1044270D01*
X547166Y1044552D01*
X546935Y1044841D01*
X546712Y1045135D01*
X546495Y1045434D01*
X546286Y1045739D01*
X546085Y1046048D01*
X545891Y1046363D01*
X545705Y1046682D01*
X545527Y1047005D01*
X545357Y1047333D01*
X545195Y1047665D01*
X545041Y1048001D01*
X544896Y1048341D01*
X544758Y1048684D01*
X544630Y1049030D01*
X544510Y1049379D01*
X544398Y1049731D01*
X544295Y1050086D01*
X544201Y1050443D01*
X544116Y1050803D01*
X544039Y1051164D01*
X543972Y1051527D01*
X543913Y1051892D01*
X543863Y1052258D01*
X543822Y1052625D01*
X543791Y1052993D01*
X543768Y1053362D01*
X543755Y1053731D01*
X543750Y1054100D01*
X543750Y25400D02*
X543755Y25769D01*
X543768Y26138D01*
X543791Y26507D01*
X543822Y26875D01*
X543863Y27242D01*
X543913Y27608D01*
X543972Y27973D01*
X544039Y28336D01*
X544116Y28697D01*
X544201Y29057D01*
X544295Y29414D01*
X544398Y29769D01*
X544510Y30121D01*
X544630Y30470D01*
X544758Y30816D01*
X544896Y31159D01*
X545041Y31499D01*
X545195Y31835D01*
X545357Y32167D01*
X545527Y32495D01*
X545705Y32818D01*
X545891Y33137D01*
X546085Y33452D01*
X546286Y33761D01*
X546495Y34066D01*
X546712Y34365D01*
X546935Y34659D01*
X547166Y34948D01*
X547404Y35230D01*
X547649Y35507D01*
X547900Y35778D01*
X548158Y36042D01*
X548422Y36300D01*
X548693Y36551D01*
X548970Y36796D01*
X549252Y37034D01*
X549541Y37265D01*
X549835Y37488D01*
X550134Y37705D01*
X550439Y37914D01*
X550748Y38115D01*
X551063Y38309D01*
X551382Y38495D01*
X551705Y38673D01*
X552033Y38843D01*
X552365Y39005D01*
X552701Y39159D01*
X553041Y39304D01*
X553384Y39442D01*
X553730Y39570D01*
X554079Y39690D01*
X554431Y39802D01*
X554786Y39905D01*
X555143Y39999D01*
X555503Y40084D01*
X555864Y40161D01*
X556227Y40228D01*
X556592Y40287D01*
X556958Y40337D01*
X557325Y40378D01*
X557693Y40409D01*
X558062Y40432D01*
X558431Y40445D01*
X558800Y40450D01*
X559169Y40445D01*
X559538Y40432D01*
X559907Y40409D01*
X560275Y40378D01*
X560642Y40337D01*
X561008Y40287D01*
X561373Y40228D01*
X561736Y40161D01*
X562097Y40084D01*
X562457Y39999D01*
X562814Y39905D01*
X563169Y39802D01*
X563521Y39690D01*
X563870Y39570D01*
X564216Y39442D01*
X564559Y39304D01*
X564899Y39159D01*
X565235Y39005D01*
X565567Y38843D01*
X565895Y38673D01*
X566218Y38495D01*
X566537Y38309D01*
X566852Y38115D01*
X567161Y37914D01*
X567466Y37705D01*
X567765Y37488D01*
X568059Y37265D01*
X568348Y37034D01*
X568630Y36796D01*
X568907Y36551D01*
X569178Y36300D01*
X569442Y36042D01*
X569700Y35778D01*
X569951Y35507D01*
X570196Y35230D01*
X570434Y34948D01*
X570665Y34659D01*
X570888Y34365D01*
X571105Y34066D01*
X571314Y33761D01*
X571515Y33452D01*
X571709Y33137D01*
X571895Y32818D01*
X572073Y32495D01*
X572243Y32167D01*
X572405Y31835D01*
X572559Y31499D01*
X572704Y31159D01*
X572842Y30816D01*
X572970Y30470D01*
X573090Y30121D01*
X573202Y29769D01*
X573305Y29414D01*
X573399Y29057D01*
X573484Y28697D01*
X573561Y28336D01*
X573628Y27973D01*
X573687Y27608D01*
X573737Y27242D01*
X573778Y26875D01*
X573809Y26507D01*
X573832Y26138D01*
X573845Y25769D01*
X573850Y25400D01*
X573845Y25031D01*
X573832Y24662D01*
X573809Y24293D01*
X573778Y23925D01*
X573737Y23558D01*
X573687Y23192D01*
X573628Y22827D01*
X573561Y22464D01*
X573484Y22103D01*
X573399Y21743D01*
X573305Y21386D01*
X573202Y21031D01*
X573090Y20679D01*
X572970Y20330D01*
X572842Y19984D01*
X572704Y19641D01*
X572559Y19301D01*
X572405Y18965D01*
X572243Y18633D01*
X572073Y18305D01*
X571895Y17982D01*
X571709Y17663D01*
X571515Y17348D01*
X571314Y17039D01*
X571105Y16734D01*
X570888Y16435D01*
X570665Y16141D01*
X570434Y15852D01*
X570196Y15570D01*
X569951Y15293D01*
X569700Y15022D01*
X569442Y14758D01*
X569178Y14500D01*
X568907Y14249D01*
X568630Y14004D01*
X568348Y13766D01*
X568059Y13535D01*
X567765Y13312D01*
X567466Y13095D01*
X567161Y12886D01*
X566852Y12685D01*
X566537Y12491D01*
X566218Y12305D01*
X565895Y12127D01*
X565567Y11957D01*
X565235Y11795D01*
X564899Y11641D01*
X564559Y11496D01*
X564216Y11358D01*
X563870Y11230D01*
X563521Y11110D01*
X563169Y10998D01*
X562814Y10895D01*
X562457Y10801D01*
X562097Y10716D01*
X561736Y10639D01*
X561373Y10572D01*
X561008Y10513D01*
X560642Y10463D01*
X560275Y10422D01*
X559907Y10391D01*
X559538Y10368D01*
X559169Y10355D01*
X558800Y10350D01*
X558431Y10355D01*
X558062Y10368D01*
X557693Y10391D01*
X557325Y10422D01*
X556958Y10463D01*
X556592Y10513D01*
X556227Y10572D01*
X555864Y10639D01*
X555503Y10716D01*
X555143Y10801D01*
X554786Y10895D01*
X554431Y10998D01*
X554079Y11110D01*
X553730Y11230D01*
X553384Y11358D01*
X553041Y11496D01*
X552701Y11641D01*
X552365Y11795D01*
X552033Y11957D01*
X551705Y12127D01*
X551382Y12305D01*
X551063Y12491D01*
X550748Y12685D01*
X550439Y12886D01*
X550134Y13095D01*
X549835Y13312D01*
X549541Y13535D01*
X549252Y13766D01*
X548970Y14004D01*
X548693Y14249D01*
X548422Y14500D01*
X548158Y14758D01*
X547900Y15022D01*
X547649Y15293D01*
X547404Y15570D01*
X547166Y15852D01*
X546935Y16141D01*
X546712Y16435D01*
X546495Y16734D01*
X546286Y17039D01*
X546085Y17348D01*
X545891Y17663D01*
X545705Y17982D01*
X545527Y18305D01*
X545357Y18633D01*
X545195Y18965D01*
X545041Y19301D01*
X544896Y19641D01*
X544758Y19984D01*
X544630Y20330D01*
X544510Y20679D01*
X544398Y21031D01*
X544295Y21386D01*
X544201Y21743D01*
X544116Y22103D01*
X544039Y22464D01*
X543972Y22827D01*
X543913Y23192D01*
X543863Y23558D01*
X543822Y23925D01*
X543791Y24293D01*
X543768Y24662D01*
X543755Y25031D01*
X543750Y25400D01*
X10350Y25400D02*
X10355Y25769D01*
X10368Y26138D01*
X10391Y26507D01*
X10422Y26875D01*
X10463Y27242D01*
X10513Y27608D01*
X10572Y27973D01*
X10639Y28336D01*
X10716Y28697D01*
X10801Y29057D01*
X10895Y29414D01*
X10998Y29769D01*
X11110Y30121D01*
X11230Y30470D01*
X11358Y30816D01*
X11496Y31159D01*
X11641Y31499D01*
X11795Y31835D01*
X11957Y32167D01*
X12127Y32495D01*
X12305Y32818D01*
X12491Y33137D01*
X12685Y33452D01*
X12886Y33761D01*
X13095Y34066D01*
X13312Y34365D01*
X13535Y34659D01*
X13766Y34948D01*
X14004Y35230D01*
X14249Y35507D01*
X14500Y35778D01*
X14758Y36042D01*
X15022Y36300D01*
X15293Y36551D01*
X15570Y36796D01*
X15852Y37034D01*
X16141Y37265D01*
X16435Y37488D01*
X16734Y37705D01*
X17039Y37914D01*
X17348Y38115D01*
X17663Y38309D01*
X17982Y38495D01*
X18305Y38673D01*
X18633Y38843D01*
X18965Y39005D01*
X19301Y39159D01*
X19641Y39304D01*
X19984Y39442D01*
X20330Y39570D01*
X20679Y39690D01*
X21031Y39802D01*
X21386Y39905D01*
X21743Y39999D01*
X22103Y40084D01*
X22464Y40161D01*
X22827Y40228D01*
X23192Y40287D01*
X23558Y40337D01*
X23925Y40378D01*
X24293Y40409D01*
X24662Y40432D01*
X25031Y40445D01*
X25400Y40450D01*
X25769Y40445D01*
X26138Y40432D01*
X26507Y40409D01*
X26875Y40378D01*
X27242Y40337D01*
X27608Y40287D01*
X27973Y40228D01*
X28336Y40161D01*
X28697Y40084D01*
X29057Y39999D01*
X29414Y39905D01*
X29769Y39802D01*
X30121Y39690D01*
X30470Y39570D01*
X30816Y39442D01*
X31159Y39304D01*
X31499Y39159D01*
X31835Y39005D01*
X32167Y38843D01*
X32495Y38673D01*
X32818Y38495D01*
X33137Y38309D01*
X33452Y38115D01*
X33761Y37914D01*
X34066Y37705D01*
X34365Y37488D01*
X34659Y37265D01*
X34948Y37034D01*
X35230Y36796D01*
X35507Y36551D01*
X35778Y36300D01*
X36042Y36042D01*
X36300Y35778D01*
X36551Y35507D01*
X36796Y35230D01*
X37034Y34948D01*
X37265Y34659D01*
X37488Y34365D01*
X37705Y34066D01*
X37914Y33761D01*
X38115Y33452D01*
X38309Y33137D01*
X38495Y32818D01*
X38673Y32495D01*
X38843Y32167D01*
X39005Y31835D01*
X39159Y31499D01*
X39304Y31159D01*
X39442Y30816D01*
X39570Y30470D01*
X39690Y30121D01*
X39802Y29769D01*
X39905Y29414D01*
X39999Y29057D01*
X40084Y28697D01*
X40161Y28336D01*
X40228Y27973D01*
X40287Y27608D01*
X40337Y27242D01*
X40378Y26875D01*
X40409Y26507D01*
X40432Y26138D01*
X40445Y25769D01*
X40450Y25400D01*
X40445Y25031D01*
X40432Y24662D01*
X40409Y24293D01*
X40378Y23925D01*
X40337Y23558D01*
X40287Y23192D01*
X40228Y22827D01*
X40161Y22464D01*
X40084Y22103D01*
X39999Y21743D01*
X39905Y21386D01*
X39802Y21031D01*
X39690Y20679D01*
X39570Y20330D01*
X39442Y19984D01*
X39304Y19641D01*
X39159Y19301D01*
X39005Y18965D01*
X38843Y18633D01*
X38673Y18305D01*
X38495Y17982D01*
X38309Y17663D01*
X38115Y17348D01*
X37914Y17039D01*
X37705Y16734D01*
X37488Y16435D01*
X37265Y16141D01*
X37034Y15852D01*
X36796Y15570D01*
X36551Y15293D01*
X36300Y15022D01*
X36042Y14758D01*
X35778Y14500D01*
X35507Y14249D01*
X35230Y14004D01*
X34948Y13766D01*
X34659Y13535D01*
X34365Y13312D01*
X34066Y13095D01*
X33761Y12886D01*
X33452Y12685D01*
X33137Y12491D01*
X32818Y12305D01*
X32495Y12127D01*
X32167Y11957D01*
X31835Y11795D01*
X31499Y11641D01*
X31159Y11496D01*
X30816Y11358D01*
X30470Y11230D01*
X30121Y11110D01*
X29769Y10998D01*
X29414Y10895D01*
X29057Y10801D01*
X28697Y10716D01*
X28336Y10639D01*
X27973Y10572D01*
X27608Y10513D01*
X27242Y10463D01*
X26875Y10422D01*
X26507Y10391D01*
X26138Y10368D01*
X25769Y10355D01*
X25400Y10350D01*
X25031Y10355D01*
X24662Y10368D01*
X24293Y10391D01*
X23925Y10422D01*
X23558Y10463D01*
X23192Y10513D01*
X22827Y10572D01*
X22464Y10639D01*
X22103Y10716D01*
X21743Y10801D01*
X21386Y10895D01*
X21031Y10998D01*
X20679Y11110D01*
X20330Y11230D01*
X19984Y11358D01*
X19641Y11496D01*
X19301Y11641D01*
X18965Y11795D01*
X18633Y11957D01*
X18305Y12127D01*
X17982Y12305D01*
X17663Y12491D01*
X17348Y12685D01*
X17039Y12886D01*
X16734Y13095D01*
X16435Y13312D01*
X16141Y13535D01*
X15852Y13766D01*
X15570Y14004D01*
X15293Y14249D01*
X15022Y14500D01*
X14758Y14758D01*
X14500Y15022D01*
X14249Y15293D01*
X14004Y15570D01*
X13766Y15852D01*
X13535Y16141D01*
X13312Y16435D01*
X13095Y16734D01*
X12886Y17039D01*
X12685Y17348D01*
X12491Y17663D01*
X12305Y17982D01*
X12127Y18305D01*
X11957Y18633D01*
X11795Y18965D01*
X11641Y19301D01*
X11496Y19641D01*
X11358Y19984D01*
X11230Y20330D01*
X11110Y20679D01*
X10998Y21031D01*
X10895Y21386D01*
X10801Y21743D01*
X10716Y22103D01*
X10639Y22464D01*
X10572Y22827D01*
X10513Y23192D01*
X10463Y23558D01*
X10422Y23925D01*
X10391Y24293D01*
X10368Y24662D01*
X10355Y25031D01*
X10350Y25400D01*
X584200Y0D02*
X584200Y139700D01*
X520700Y139700D01*
X520700Y215900D01*
X558800Y215900D01*
X584200Y533400D02*
X584200Y711200D01*
X584200Y1016000D02*
X584200Y1079500D01*
X330200Y1079500D01*
X330200Y1016000D01*
X254000Y1016000D01*
X254000Y1079500D01*
X0Y1079500D01*
X0Y1016000D01*
X0Y762000D02*
X0Y736600D01*
X0Y660400D02*
X0Y215900D01*
X63500Y215900D01*
X63500Y139700D01*
X0Y139700D01*
X0Y0D01*
X584200Y0D01*
X584200Y711200D02*
X558800Y711200D01*
X558800Y1016000D01*
X584200Y1016000D01*
X25400Y1016000D02*
X0Y1016000D01*
X25400Y1016000D02*
X25400Y762000D01*
X0Y762000D01*
X558800Y533400D02*
X558800Y215900D01*
X558800Y533400D02*
X584200Y533400D01*
X50800Y660400D02*
X0Y660400D01*
X50800Y660400D02*
X50800Y736600D01*
X0Y736600D01*
M02*
