G04 EAGLE Gerber RS-274X export*
G75*
%MOMM*%
%FSLAX34Y34*%
%LPD*%
%INPlexiglass Top*%
%IPPOS*%
%AMOC8*
5,1,8,0,0,1.08239X$1,22.5*%
G01*
%ADD10C,0.076200*%


D10*
X10350Y1054100D02*
X10355Y1054469D01*
X10368Y1054838D01*
X10391Y1055207D01*
X10422Y1055575D01*
X10463Y1055942D01*
X10513Y1056308D01*
X10572Y1056673D01*
X10639Y1057036D01*
X10716Y1057397D01*
X10801Y1057757D01*
X10895Y1058114D01*
X10998Y1058469D01*
X11110Y1058821D01*
X11230Y1059170D01*
X11358Y1059516D01*
X11496Y1059859D01*
X11641Y1060199D01*
X11795Y1060535D01*
X11957Y1060867D01*
X12127Y1061195D01*
X12305Y1061518D01*
X12491Y1061837D01*
X12685Y1062152D01*
X12886Y1062461D01*
X13095Y1062766D01*
X13312Y1063065D01*
X13535Y1063359D01*
X13766Y1063648D01*
X14004Y1063930D01*
X14249Y1064207D01*
X14500Y1064478D01*
X14758Y1064742D01*
X15022Y1065000D01*
X15293Y1065251D01*
X15570Y1065496D01*
X15852Y1065734D01*
X16141Y1065965D01*
X16435Y1066188D01*
X16734Y1066405D01*
X17039Y1066614D01*
X17348Y1066815D01*
X17663Y1067009D01*
X17982Y1067195D01*
X18305Y1067373D01*
X18633Y1067543D01*
X18965Y1067705D01*
X19301Y1067859D01*
X19641Y1068004D01*
X19984Y1068142D01*
X20330Y1068270D01*
X20679Y1068390D01*
X21031Y1068502D01*
X21386Y1068605D01*
X21743Y1068699D01*
X22103Y1068784D01*
X22464Y1068861D01*
X22827Y1068928D01*
X23192Y1068987D01*
X23558Y1069037D01*
X23925Y1069078D01*
X24293Y1069109D01*
X24662Y1069132D01*
X25031Y1069145D01*
X25400Y1069150D01*
X25769Y1069145D01*
X26138Y1069132D01*
X26507Y1069109D01*
X26875Y1069078D01*
X27242Y1069037D01*
X27608Y1068987D01*
X27973Y1068928D01*
X28336Y1068861D01*
X28697Y1068784D01*
X29057Y1068699D01*
X29414Y1068605D01*
X29769Y1068502D01*
X30121Y1068390D01*
X30470Y1068270D01*
X30816Y1068142D01*
X31159Y1068004D01*
X31499Y1067859D01*
X31835Y1067705D01*
X32167Y1067543D01*
X32495Y1067373D01*
X32818Y1067195D01*
X33137Y1067009D01*
X33452Y1066815D01*
X33761Y1066614D01*
X34066Y1066405D01*
X34365Y1066188D01*
X34659Y1065965D01*
X34948Y1065734D01*
X35230Y1065496D01*
X35507Y1065251D01*
X35778Y1065000D01*
X36042Y1064742D01*
X36300Y1064478D01*
X36551Y1064207D01*
X36796Y1063930D01*
X37034Y1063648D01*
X37265Y1063359D01*
X37488Y1063065D01*
X37705Y1062766D01*
X37914Y1062461D01*
X38115Y1062152D01*
X38309Y1061837D01*
X38495Y1061518D01*
X38673Y1061195D01*
X38843Y1060867D01*
X39005Y1060535D01*
X39159Y1060199D01*
X39304Y1059859D01*
X39442Y1059516D01*
X39570Y1059170D01*
X39690Y1058821D01*
X39802Y1058469D01*
X39905Y1058114D01*
X39999Y1057757D01*
X40084Y1057397D01*
X40161Y1057036D01*
X40228Y1056673D01*
X40287Y1056308D01*
X40337Y1055942D01*
X40378Y1055575D01*
X40409Y1055207D01*
X40432Y1054838D01*
X40445Y1054469D01*
X40450Y1054100D01*
X40445Y1053731D01*
X40432Y1053362D01*
X40409Y1052993D01*
X40378Y1052625D01*
X40337Y1052258D01*
X40287Y1051892D01*
X40228Y1051527D01*
X40161Y1051164D01*
X40084Y1050803D01*
X39999Y1050443D01*
X39905Y1050086D01*
X39802Y1049731D01*
X39690Y1049379D01*
X39570Y1049030D01*
X39442Y1048684D01*
X39304Y1048341D01*
X39159Y1048001D01*
X39005Y1047665D01*
X38843Y1047333D01*
X38673Y1047005D01*
X38495Y1046682D01*
X38309Y1046363D01*
X38115Y1046048D01*
X37914Y1045739D01*
X37705Y1045434D01*
X37488Y1045135D01*
X37265Y1044841D01*
X37034Y1044552D01*
X36796Y1044270D01*
X36551Y1043993D01*
X36300Y1043722D01*
X36042Y1043458D01*
X35778Y1043200D01*
X35507Y1042949D01*
X35230Y1042704D01*
X34948Y1042466D01*
X34659Y1042235D01*
X34365Y1042012D01*
X34066Y1041795D01*
X33761Y1041586D01*
X33452Y1041385D01*
X33137Y1041191D01*
X32818Y1041005D01*
X32495Y1040827D01*
X32167Y1040657D01*
X31835Y1040495D01*
X31499Y1040341D01*
X31159Y1040196D01*
X30816Y1040058D01*
X30470Y1039930D01*
X30121Y1039810D01*
X29769Y1039698D01*
X29414Y1039595D01*
X29057Y1039501D01*
X28697Y1039416D01*
X28336Y1039339D01*
X27973Y1039272D01*
X27608Y1039213D01*
X27242Y1039163D01*
X26875Y1039122D01*
X26507Y1039091D01*
X26138Y1039068D01*
X25769Y1039055D01*
X25400Y1039050D01*
X25031Y1039055D01*
X24662Y1039068D01*
X24293Y1039091D01*
X23925Y1039122D01*
X23558Y1039163D01*
X23192Y1039213D01*
X22827Y1039272D01*
X22464Y1039339D01*
X22103Y1039416D01*
X21743Y1039501D01*
X21386Y1039595D01*
X21031Y1039698D01*
X20679Y1039810D01*
X20330Y1039930D01*
X19984Y1040058D01*
X19641Y1040196D01*
X19301Y1040341D01*
X18965Y1040495D01*
X18633Y1040657D01*
X18305Y1040827D01*
X17982Y1041005D01*
X17663Y1041191D01*
X17348Y1041385D01*
X17039Y1041586D01*
X16734Y1041795D01*
X16435Y1042012D01*
X16141Y1042235D01*
X15852Y1042466D01*
X15570Y1042704D01*
X15293Y1042949D01*
X15022Y1043200D01*
X14758Y1043458D01*
X14500Y1043722D01*
X14249Y1043993D01*
X14004Y1044270D01*
X13766Y1044552D01*
X13535Y1044841D01*
X13312Y1045135D01*
X13095Y1045434D01*
X12886Y1045739D01*
X12685Y1046048D01*
X12491Y1046363D01*
X12305Y1046682D01*
X12127Y1047005D01*
X11957Y1047333D01*
X11795Y1047665D01*
X11641Y1048001D01*
X11496Y1048341D01*
X11358Y1048684D01*
X11230Y1049030D01*
X11110Y1049379D01*
X10998Y1049731D01*
X10895Y1050086D01*
X10801Y1050443D01*
X10716Y1050803D01*
X10639Y1051164D01*
X10572Y1051527D01*
X10513Y1051892D01*
X10463Y1052258D01*
X10422Y1052625D01*
X10391Y1052993D01*
X10368Y1053362D01*
X10355Y1053731D01*
X10350Y1054100D01*
X543750Y1054100D02*
X543755Y1054469D01*
X543768Y1054838D01*
X543791Y1055207D01*
X543822Y1055575D01*
X543863Y1055942D01*
X543913Y1056308D01*
X543972Y1056673D01*
X544039Y1057036D01*
X544116Y1057397D01*
X544201Y1057757D01*
X544295Y1058114D01*
X544398Y1058469D01*
X544510Y1058821D01*
X544630Y1059170D01*
X544758Y1059516D01*
X544896Y1059859D01*
X545041Y1060199D01*
X545195Y1060535D01*
X545357Y1060867D01*
X545527Y1061195D01*
X545705Y1061518D01*
X545891Y1061837D01*
X546085Y1062152D01*
X546286Y1062461D01*
X546495Y1062766D01*
X546712Y1063065D01*
X546935Y1063359D01*
X547166Y1063648D01*
X547404Y1063930D01*
X547649Y1064207D01*
X547900Y1064478D01*
X548158Y1064742D01*
X548422Y1065000D01*
X548693Y1065251D01*
X548970Y1065496D01*
X549252Y1065734D01*
X549541Y1065965D01*
X549835Y1066188D01*
X550134Y1066405D01*
X550439Y1066614D01*
X550748Y1066815D01*
X551063Y1067009D01*
X551382Y1067195D01*
X551705Y1067373D01*
X552033Y1067543D01*
X552365Y1067705D01*
X552701Y1067859D01*
X553041Y1068004D01*
X553384Y1068142D01*
X553730Y1068270D01*
X554079Y1068390D01*
X554431Y1068502D01*
X554786Y1068605D01*
X555143Y1068699D01*
X555503Y1068784D01*
X555864Y1068861D01*
X556227Y1068928D01*
X556592Y1068987D01*
X556958Y1069037D01*
X557325Y1069078D01*
X557693Y1069109D01*
X558062Y1069132D01*
X558431Y1069145D01*
X558800Y1069150D01*
X559169Y1069145D01*
X559538Y1069132D01*
X559907Y1069109D01*
X560275Y1069078D01*
X560642Y1069037D01*
X561008Y1068987D01*
X561373Y1068928D01*
X561736Y1068861D01*
X562097Y1068784D01*
X562457Y1068699D01*
X562814Y1068605D01*
X563169Y1068502D01*
X563521Y1068390D01*
X563870Y1068270D01*
X564216Y1068142D01*
X564559Y1068004D01*
X564899Y1067859D01*
X565235Y1067705D01*
X565567Y1067543D01*
X565895Y1067373D01*
X566218Y1067195D01*
X566537Y1067009D01*
X566852Y1066815D01*
X567161Y1066614D01*
X567466Y1066405D01*
X567765Y1066188D01*
X568059Y1065965D01*
X568348Y1065734D01*
X568630Y1065496D01*
X568907Y1065251D01*
X569178Y1065000D01*
X569442Y1064742D01*
X569700Y1064478D01*
X569951Y1064207D01*
X570196Y1063930D01*
X570434Y1063648D01*
X570665Y1063359D01*
X570888Y1063065D01*
X571105Y1062766D01*
X571314Y1062461D01*
X571515Y1062152D01*
X571709Y1061837D01*
X571895Y1061518D01*
X572073Y1061195D01*
X572243Y1060867D01*
X572405Y1060535D01*
X572559Y1060199D01*
X572704Y1059859D01*
X572842Y1059516D01*
X572970Y1059170D01*
X573090Y1058821D01*
X573202Y1058469D01*
X573305Y1058114D01*
X573399Y1057757D01*
X573484Y1057397D01*
X573561Y1057036D01*
X573628Y1056673D01*
X573687Y1056308D01*
X573737Y1055942D01*
X573778Y1055575D01*
X573809Y1055207D01*
X573832Y1054838D01*
X573845Y1054469D01*
X573850Y1054100D01*
X573845Y1053731D01*
X573832Y1053362D01*
X573809Y1052993D01*
X573778Y1052625D01*
X573737Y1052258D01*
X573687Y1051892D01*
X573628Y1051527D01*
X573561Y1051164D01*
X573484Y1050803D01*
X573399Y1050443D01*
X573305Y1050086D01*
X573202Y1049731D01*
X573090Y1049379D01*
X572970Y1049030D01*
X572842Y1048684D01*
X572704Y1048341D01*
X572559Y1048001D01*
X572405Y1047665D01*
X572243Y1047333D01*
X572073Y1047005D01*
X571895Y1046682D01*
X571709Y1046363D01*
X571515Y1046048D01*
X571314Y1045739D01*
X571105Y1045434D01*
X570888Y1045135D01*
X570665Y1044841D01*
X570434Y1044552D01*
X570196Y1044270D01*
X569951Y1043993D01*
X569700Y1043722D01*
X569442Y1043458D01*
X569178Y1043200D01*
X568907Y1042949D01*
X568630Y1042704D01*
X568348Y1042466D01*
X568059Y1042235D01*
X567765Y1042012D01*
X567466Y1041795D01*
X567161Y1041586D01*
X566852Y1041385D01*
X566537Y1041191D01*
X566218Y1041005D01*
X565895Y1040827D01*
X565567Y1040657D01*
X565235Y1040495D01*
X564899Y1040341D01*
X564559Y1040196D01*
X564216Y1040058D01*
X563870Y1039930D01*
X563521Y1039810D01*
X563169Y1039698D01*
X562814Y1039595D01*
X562457Y1039501D01*
X562097Y1039416D01*
X561736Y1039339D01*
X561373Y1039272D01*
X561008Y1039213D01*
X560642Y1039163D01*
X560275Y1039122D01*
X559907Y1039091D01*
X559538Y1039068D01*
X559169Y1039055D01*
X558800Y1039050D01*
X558431Y1039055D01*
X558062Y1039068D01*
X557693Y1039091D01*
X557325Y1039122D01*
X556958Y1039163D01*
X556592Y1039213D01*
X556227Y1039272D01*
X555864Y1039339D01*
X555503Y1039416D01*
X555143Y1039501D01*
X554786Y1039595D01*
X554431Y1039698D01*
X554079Y1039810D01*
X553730Y1039930D01*
X553384Y1040058D01*
X553041Y1040196D01*
X552701Y1040341D01*
X552365Y1040495D01*
X552033Y1040657D01*
X551705Y1040827D01*
X551382Y1041005D01*
X551063Y1041191D01*
X550748Y1041385D01*
X550439Y1041586D01*
X550134Y1041795D01*
X549835Y1042012D01*
X549541Y1042235D01*
X549252Y1042466D01*
X548970Y1042704D01*
X548693Y1042949D01*
X548422Y1043200D01*
X548158Y1043458D01*
X547900Y1043722D01*
X547649Y1043993D01*
X547404Y1044270D01*
X547166Y1044552D01*
X546935Y1044841D01*
X546712Y1045135D01*
X546495Y1045434D01*
X546286Y1045739D01*
X546085Y1046048D01*
X545891Y1046363D01*
X545705Y1046682D01*
X545527Y1047005D01*
X545357Y1047333D01*
X545195Y1047665D01*
X545041Y1048001D01*
X544896Y1048341D01*
X544758Y1048684D01*
X544630Y1049030D01*
X544510Y1049379D01*
X544398Y1049731D01*
X544295Y1050086D01*
X544201Y1050443D01*
X544116Y1050803D01*
X544039Y1051164D01*
X543972Y1051527D01*
X543913Y1051892D01*
X543863Y1052258D01*
X543822Y1052625D01*
X543791Y1052993D01*
X543768Y1053362D01*
X543755Y1053731D01*
X543750Y1054100D01*
X543750Y25400D02*
X543755Y25769D01*
X543768Y26138D01*
X543791Y26507D01*
X543822Y26875D01*
X543863Y27242D01*
X543913Y27608D01*
X543972Y27973D01*
X544039Y28336D01*
X544116Y28697D01*
X544201Y29057D01*
X544295Y29414D01*
X544398Y29769D01*
X544510Y30121D01*
X544630Y30470D01*
X544758Y30816D01*
X544896Y31159D01*
X545041Y31499D01*
X545195Y31835D01*
X545357Y32167D01*
X545527Y32495D01*
X545705Y32818D01*
X545891Y33137D01*
X546085Y33452D01*
X546286Y33761D01*
X546495Y34066D01*
X546712Y34365D01*
X546935Y34659D01*
X547166Y34948D01*
X547404Y35230D01*
X547649Y35507D01*
X547900Y35778D01*
X548158Y36042D01*
X548422Y36300D01*
X548693Y36551D01*
X548970Y36796D01*
X549252Y37034D01*
X549541Y37265D01*
X549835Y37488D01*
X550134Y37705D01*
X550439Y37914D01*
X550748Y38115D01*
X551063Y38309D01*
X551382Y38495D01*
X551705Y38673D01*
X552033Y38843D01*
X552365Y39005D01*
X552701Y39159D01*
X553041Y39304D01*
X553384Y39442D01*
X553730Y39570D01*
X554079Y39690D01*
X554431Y39802D01*
X554786Y39905D01*
X555143Y39999D01*
X555503Y40084D01*
X555864Y40161D01*
X556227Y40228D01*
X556592Y40287D01*
X556958Y40337D01*
X557325Y40378D01*
X557693Y40409D01*
X558062Y40432D01*
X558431Y40445D01*
X558800Y40450D01*
X559169Y40445D01*
X559538Y40432D01*
X559907Y40409D01*
X560275Y40378D01*
X560642Y40337D01*
X561008Y40287D01*
X561373Y40228D01*
X561736Y40161D01*
X562097Y40084D01*
X562457Y39999D01*
X562814Y39905D01*
X563169Y39802D01*
X563521Y39690D01*
X563870Y39570D01*
X564216Y39442D01*
X564559Y39304D01*
X564899Y39159D01*
X565235Y39005D01*
X565567Y38843D01*
X565895Y38673D01*
X566218Y38495D01*
X566537Y38309D01*
X566852Y38115D01*
X567161Y37914D01*
X567466Y37705D01*
X567765Y37488D01*
X568059Y37265D01*
X568348Y37034D01*
X568630Y36796D01*
X568907Y36551D01*
X569178Y36300D01*
X569442Y36042D01*
X569700Y35778D01*
X569951Y35507D01*
X570196Y35230D01*
X570434Y34948D01*
X570665Y34659D01*
X570888Y34365D01*
X571105Y34066D01*
X571314Y33761D01*
X571515Y33452D01*
X571709Y33137D01*
X571895Y32818D01*
X572073Y32495D01*
X572243Y32167D01*
X572405Y31835D01*
X572559Y31499D01*
X572704Y31159D01*
X572842Y30816D01*
X572970Y30470D01*
X573090Y30121D01*
X573202Y29769D01*
X573305Y29414D01*
X573399Y29057D01*
X573484Y28697D01*
X573561Y28336D01*
X573628Y27973D01*
X573687Y27608D01*
X573737Y27242D01*
X573778Y26875D01*
X573809Y26507D01*
X573832Y26138D01*
X573845Y25769D01*
X573850Y25400D01*
X573845Y25031D01*
X573832Y24662D01*
X573809Y24293D01*
X573778Y23925D01*
X573737Y23558D01*
X573687Y23192D01*
X573628Y22827D01*
X573561Y22464D01*
X573484Y22103D01*
X573399Y21743D01*
X573305Y21386D01*
X573202Y21031D01*
X573090Y20679D01*
X572970Y20330D01*
X572842Y19984D01*
X572704Y19641D01*
X572559Y19301D01*
X572405Y18965D01*
X572243Y18633D01*
X572073Y18305D01*
X571895Y17982D01*
X571709Y17663D01*
X571515Y17348D01*
X571314Y17039D01*
X571105Y16734D01*
X570888Y16435D01*
X570665Y16141D01*
X570434Y15852D01*
X570196Y15570D01*
X569951Y15293D01*
X569700Y15022D01*
X569442Y14758D01*
X569178Y14500D01*
X568907Y14249D01*
X568630Y14004D01*
X568348Y13766D01*
X568059Y13535D01*
X567765Y13312D01*
X567466Y13095D01*
X567161Y12886D01*
X566852Y12685D01*
X566537Y12491D01*
X566218Y12305D01*
X565895Y12127D01*
X565567Y11957D01*
X565235Y11795D01*
X564899Y11641D01*
X564559Y11496D01*
X564216Y11358D01*
X563870Y11230D01*
X563521Y11110D01*
X563169Y10998D01*
X562814Y10895D01*
X562457Y10801D01*
X562097Y10716D01*
X561736Y10639D01*
X561373Y10572D01*
X561008Y10513D01*
X560642Y10463D01*
X560275Y10422D01*
X559907Y10391D01*
X559538Y10368D01*
X559169Y10355D01*
X558800Y10350D01*
X558431Y10355D01*
X558062Y10368D01*
X557693Y10391D01*
X557325Y10422D01*
X556958Y10463D01*
X556592Y10513D01*
X556227Y10572D01*
X555864Y10639D01*
X555503Y10716D01*
X555143Y10801D01*
X554786Y10895D01*
X554431Y10998D01*
X554079Y11110D01*
X553730Y11230D01*
X553384Y11358D01*
X553041Y11496D01*
X552701Y11641D01*
X552365Y11795D01*
X552033Y11957D01*
X551705Y12127D01*
X551382Y12305D01*
X551063Y12491D01*
X550748Y12685D01*
X550439Y12886D01*
X550134Y13095D01*
X549835Y13312D01*
X549541Y13535D01*
X549252Y13766D01*
X548970Y14004D01*
X548693Y14249D01*
X548422Y14500D01*
X548158Y14758D01*
X547900Y15022D01*
X547649Y15293D01*
X547404Y15570D01*
X547166Y15852D01*
X546935Y16141D01*
X546712Y16435D01*
X546495Y16734D01*
X546286Y17039D01*
X546085Y17348D01*
X545891Y17663D01*
X545705Y17982D01*
X545527Y18305D01*
X545357Y18633D01*
X545195Y18965D01*
X545041Y19301D01*
X544896Y19641D01*
X544758Y19984D01*
X544630Y20330D01*
X544510Y20679D01*
X544398Y21031D01*
X544295Y21386D01*
X544201Y21743D01*
X544116Y22103D01*
X544039Y22464D01*
X543972Y22827D01*
X543913Y23192D01*
X543863Y23558D01*
X543822Y23925D01*
X543791Y24293D01*
X543768Y24662D01*
X543755Y25031D01*
X543750Y25400D01*
X10350Y25400D02*
X10355Y25769D01*
X10368Y26138D01*
X10391Y26507D01*
X10422Y26875D01*
X10463Y27242D01*
X10513Y27608D01*
X10572Y27973D01*
X10639Y28336D01*
X10716Y28697D01*
X10801Y29057D01*
X10895Y29414D01*
X10998Y29769D01*
X11110Y30121D01*
X11230Y30470D01*
X11358Y30816D01*
X11496Y31159D01*
X11641Y31499D01*
X11795Y31835D01*
X11957Y32167D01*
X12127Y32495D01*
X12305Y32818D01*
X12491Y33137D01*
X12685Y33452D01*
X12886Y33761D01*
X13095Y34066D01*
X13312Y34365D01*
X13535Y34659D01*
X13766Y34948D01*
X14004Y35230D01*
X14249Y35507D01*
X14500Y35778D01*
X14758Y36042D01*
X15022Y36300D01*
X15293Y36551D01*
X15570Y36796D01*
X15852Y37034D01*
X16141Y37265D01*
X16435Y37488D01*
X16734Y37705D01*
X17039Y37914D01*
X17348Y38115D01*
X17663Y38309D01*
X17982Y38495D01*
X18305Y38673D01*
X18633Y38843D01*
X18965Y39005D01*
X19301Y39159D01*
X19641Y39304D01*
X19984Y39442D01*
X20330Y39570D01*
X20679Y39690D01*
X21031Y39802D01*
X21386Y39905D01*
X21743Y39999D01*
X22103Y40084D01*
X22464Y40161D01*
X22827Y40228D01*
X23192Y40287D01*
X23558Y40337D01*
X23925Y40378D01*
X24293Y40409D01*
X24662Y40432D01*
X25031Y40445D01*
X25400Y40450D01*
X25769Y40445D01*
X26138Y40432D01*
X26507Y40409D01*
X26875Y40378D01*
X27242Y40337D01*
X27608Y40287D01*
X27973Y40228D01*
X28336Y40161D01*
X28697Y40084D01*
X29057Y39999D01*
X29414Y39905D01*
X29769Y39802D01*
X30121Y39690D01*
X30470Y39570D01*
X30816Y39442D01*
X31159Y39304D01*
X31499Y39159D01*
X31835Y39005D01*
X32167Y38843D01*
X32495Y38673D01*
X32818Y38495D01*
X33137Y38309D01*
X33452Y38115D01*
X33761Y37914D01*
X34066Y37705D01*
X34365Y37488D01*
X34659Y37265D01*
X34948Y37034D01*
X35230Y36796D01*
X35507Y36551D01*
X35778Y36300D01*
X36042Y36042D01*
X36300Y35778D01*
X36551Y35507D01*
X36796Y35230D01*
X37034Y34948D01*
X37265Y34659D01*
X37488Y34365D01*
X37705Y34066D01*
X37914Y33761D01*
X38115Y33452D01*
X38309Y33137D01*
X38495Y32818D01*
X38673Y32495D01*
X38843Y32167D01*
X39005Y31835D01*
X39159Y31499D01*
X39304Y31159D01*
X39442Y30816D01*
X39570Y30470D01*
X39690Y30121D01*
X39802Y29769D01*
X39905Y29414D01*
X39999Y29057D01*
X40084Y28697D01*
X40161Y28336D01*
X40228Y27973D01*
X40287Y27608D01*
X40337Y27242D01*
X40378Y26875D01*
X40409Y26507D01*
X40432Y26138D01*
X40445Y25769D01*
X40450Y25400D01*
X40445Y25031D01*
X40432Y24662D01*
X40409Y24293D01*
X40378Y23925D01*
X40337Y23558D01*
X40287Y23192D01*
X40228Y22827D01*
X40161Y22464D01*
X40084Y22103D01*
X39999Y21743D01*
X39905Y21386D01*
X39802Y21031D01*
X39690Y20679D01*
X39570Y20330D01*
X39442Y19984D01*
X39304Y19641D01*
X39159Y19301D01*
X39005Y18965D01*
X38843Y18633D01*
X38673Y18305D01*
X38495Y17982D01*
X38309Y17663D01*
X38115Y17348D01*
X37914Y17039D01*
X37705Y16734D01*
X37488Y16435D01*
X37265Y16141D01*
X37034Y15852D01*
X36796Y15570D01*
X36551Y15293D01*
X36300Y15022D01*
X36042Y14758D01*
X35778Y14500D01*
X35507Y14249D01*
X35230Y14004D01*
X34948Y13766D01*
X34659Y13535D01*
X34365Y13312D01*
X34066Y13095D01*
X33761Y12886D01*
X33452Y12685D01*
X33137Y12491D01*
X32818Y12305D01*
X32495Y12127D01*
X32167Y11957D01*
X31835Y11795D01*
X31499Y11641D01*
X31159Y11496D01*
X30816Y11358D01*
X30470Y11230D01*
X30121Y11110D01*
X29769Y10998D01*
X29414Y10895D01*
X29057Y10801D01*
X28697Y10716D01*
X28336Y10639D01*
X27973Y10572D01*
X27608Y10513D01*
X27242Y10463D01*
X26875Y10422D01*
X26507Y10391D01*
X26138Y10368D01*
X25769Y10355D01*
X25400Y10350D01*
X25031Y10355D01*
X24662Y10368D01*
X24293Y10391D01*
X23925Y10422D01*
X23558Y10463D01*
X23192Y10513D01*
X22827Y10572D01*
X22464Y10639D01*
X22103Y10716D01*
X21743Y10801D01*
X21386Y10895D01*
X21031Y10998D01*
X20679Y11110D01*
X20330Y11230D01*
X19984Y11358D01*
X19641Y11496D01*
X19301Y11641D01*
X18965Y11795D01*
X18633Y11957D01*
X18305Y12127D01*
X17982Y12305D01*
X17663Y12491D01*
X17348Y12685D01*
X17039Y12886D01*
X16734Y13095D01*
X16435Y13312D01*
X16141Y13535D01*
X15852Y13766D01*
X15570Y14004D01*
X15293Y14249D01*
X15022Y14500D01*
X14758Y14758D01*
X14500Y15022D01*
X14249Y15293D01*
X14004Y15570D01*
X13766Y15852D01*
X13535Y16141D01*
X13312Y16435D01*
X13095Y16734D01*
X12886Y17039D01*
X12685Y17348D01*
X12491Y17663D01*
X12305Y17982D01*
X12127Y18305D01*
X11957Y18633D01*
X11795Y18965D01*
X11641Y19301D01*
X11496Y19641D01*
X11358Y19984D01*
X11230Y20330D01*
X11110Y20679D01*
X10998Y21031D01*
X10895Y21386D01*
X10801Y21743D01*
X10716Y22103D01*
X10639Y22464D01*
X10572Y22827D01*
X10513Y23192D01*
X10463Y23558D01*
X10422Y23925D01*
X10391Y24293D01*
X10368Y24662D01*
X10355Y25031D01*
X10350Y25400D01*
X167330Y570230D02*
X167348Y571702D01*
X167402Y573174D01*
X167493Y574644D01*
X167619Y576111D01*
X167781Y577575D01*
X167979Y579034D01*
X168213Y580488D01*
X168483Y581935D01*
X168788Y583376D01*
X169128Y584809D01*
X169503Y586233D01*
X169914Y587647D01*
X170358Y589051D01*
X170837Y590443D01*
X171350Y591824D01*
X171897Y593191D01*
X172477Y594544D01*
X173091Y595883D01*
X173737Y597207D01*
X174415Y598514D01*
X175125Y599804D01*
X175866Y601076D01*
X176639Y602330D01*
X177442Y603564D01*
X178275Y604778D01*
X179138Y605972D01*
X180029Y607144D01*
X180949Y608294D01*
X181897Y609420D01*
X182873Y610524D01*
X183875Y611602D01*
X184904Y612656D01*
X185958Y613685D01*
X187036Y614687D01*
X188140Y615663D01*
X189266Y616611D01*
X190416Y617531D01*
X191588Y618422D01*
X192782Y619285D01*
X193996Y620118D01*
X195230Y620921D01*
X196484Y621694D01*
X197756Y622435D01*
X199046Y623145D01*
X200353Y623823D01*
X201677Y624469D01*
X203016Y625083D01*
X204369Y625663D01*
X205736Y626210D01*
X207117Y626723D01*
X208509Y627202D01*
X209913Y627646D01*
X211327Y628057D01*
X212751Y628432D01*
X214184Y628772D01*
X215625Y629077D01*
X217072Y629347D01*
X218526Y629581D01*
X219985Y629779D01*
X221449Y629941D01*
X222916Y630067D01*
X224386Y630158D01*
X225858Y630212D01*
X227330Y630230D01*
X228802Y630212D01*
X230274Y630158D01*
X231744Y630067D01*
X233211Y629941D01*
X234675Y629779D01*
X236134Y629581D01*
X237588Y629347D01*
X239035Y629077D01*
X240476Y628772D01*
X241909Y628432D01*
X243333Y628057D01*
X244747Y627646D01*
X246151Y627202D01*
X247543Y626723D01*
X248924Y626210D01*
X250291Y625663D01*
X251644Y625083D01*
X252983Y624469D01*
X254307Y623823D01*
X255614Y623145D01*
X256904Y622435D01*
X258176Y621694D01*
X259430Y620921D01*
X260664Y620118D01*
X261878Y619285D01*
X263072Y618422D01*
X264244Y617531D01*
X265394Y616611D01*
X266520Y615663D01*
X267624Y614687D01*
X268702Y613685D01*
X269756Y612656D01*
X270785Y611602D01*
X271787Y610524D01*
X272763Y609420D01*
X273711Y608294D01*
X274631Y607144D01*
X275522Y605972D01*
X276385Y604778D01*
X277218Y603564D01*
X278021Y602330D01*
X278794Y601076D01*
X279535Y599804D01*
X280245Y598514D01*
X280923Y597207D01*
X281569Y595883D01*
X282183Y594544D01*
X282763Y593191D01*
X283310Y591824D01*
X283823Y590443D01*
X284302Y589051D01*
X284746Y587647D01*
X285157Y586233D01*
X285532Y584809D01*
X285872Y583376D01*
X286177Y581935D01*
X286447Y580488D01*
X286681Y579034D01*
X286879Y577575D01*
X287041Y576111D01*
X287167Y574644D01*
X287258Y573174D01*
X287312Y571702D01*
X287330Y570230D01*
X287312Y568758D01*
X287258Y567286D01*
X287167Y565816D01*
X287041Y564349D01*
X286879Y562885D01*
X286681Y561426D01*
X286447Y559972D01*
X286177Y558525D01*
X285872Y557084D01*
X285532Y555651D01*
X285157Y554227D01*
X284746Y552813D01*
X284302Y551409D01*
X283823Y550017D01*
X283310Y548636D01*
X282763Y547269D01*
X282183Y545916D01*
X281569Y544577D01*
X280923Y543253D01*
X280245Y541946D01*
X279535Y540656D01*
X278794Y539384D01*
X278021Y538130D01*
X277218Y536896D01*
X276385Y535682D01*
X275522Y534488D01*
X274631Y533316D01*
X273711Y532166D01*
X272763Y531040D01*
X271787Y529936D01*
X270785Y528858D01*
X269756Y527804D01*
X268702Y526775D01*
X267624Y525773D01*
X266520Y524797D01*
X265394Y523849D01*
X264244Y522929D01*
X263072Y522038D01*
X261878Y521175D01*
X260664Y520342D01*
X259430Y519539D01*
X258176Y518766D01*
X256904Y518025D01*
X255614Y517315D01*
X254307Y516637D01*
X252983Y515991D01*
X251644Y515377D01*
X250291Y514797D01*
X248924Y514250D01*
X247543Y513737D01*
X246151Y513258D01*
X244747Y512814D01*
X243333Y512403D01*
X241909Y512028D01*
X240476Y511688D01*
X239035Y511383D01*
X237588Y511113D01*
X236134Y510879D01*
X234675Y510681D01*
X233211Y510519D01*
X231744Y510393D01*
X230274Y510302D01*
X228802Y510248D01*
X227330Y510230D01*
X225858Y510248D01*
X224386Y510302D01*
X222916Y510393D01*
X221449Y510519D01*
X219985Y510681D01*
X218526Y510879D01*
X217072Y511113D01*
X215625Y511383D01*
X214184Y511688D01*
X212751Y512028D01*
X211327Y512403D01*
X209913Y512814D01*
X208509Y513258D01*
X207117Y513737D01*
X205736Y514250D01*
X204369Y514797D01*
X203016Y515377D01*
X201677Y515991D01*
X200353Y516637D01*
X199046Y517315D01*
X197756Y518025D01*
X196484Y518766D01*
X195230Y519539D01*
X193996Y520342D01*
X192782Y521175D01*
X191588Y522038D01*
X190416Y522929D01*
X189266Y523849D01*
X188140Y524797D01*
X187036Y525773D01*
X185958Y526775D01*
X184904Y527804D01*
X183875Y528858D01*
X182873Y529936D01*
X181897Y531040D01*
X180949Y532166D01*
X180029Y533316D01*
X179138Y534488D01*
X178275Y535682D01*
X177442Y536896D01*
X176639Y538130D01*
X175866Y539384D01*
X175125Y540656D01*
X174415Y541946D01*
X173737Y543253D01*
X173091Y544577D01*
X172477Y545916D01*
X171897Y547269D01*
X171350Y548636D01*
X170837Y550017D01*
X170358Y551409D01*
X169914Y552813D01*
X169503Y554227D01*
X169128Y555651D01*
X168788Y557084D01*
X168483Y558525D01*
X168213Y559972D01*
X167979Y561426D01*
X167781Y562885D01*
X167619Y564349D01*
X167493Y565816D01*
X167402Y567286D01*
X167348Y568758D01*
X167330Y570230D01*
X318460Y570230D02*
X318478Y571702D01*
X318532Y573174D01*
X318623Y574644D01*
X318749Y576111D01*
X318911Y577575D01*
X319109Y579034D01*
X319343Y580488D01*
X319613Y581935D01*
X319918Y583376D01*
X320258Y584809D01*
X320633Y586233D01*
X321044Y587647D01*
X321488Y589051D01*
X321967Y590443D01*
X322480Y591824D01*
X323027Y593191D01*
X323607Y594544D01*
X324221Y595883D01*
X324867Y597207D01*
X325545Y598514D01*
X326255Y599804D01*
X326996Y601076D01*
X327769Y602330D01*
X328572Y603564D01*
X329405Y604778D01*
X330268Y605972D01*
X331159Y607144D01*
X332079Y608294D01*
X333027Y609420D01*
X334003Y610524D01*
X335005Y611602D01*
X336034Y612656D01*
X337088Y613685D01*
X338166Y614687D01*
X339270Y615663D01*
X340396Y616611D01*
X341546Y617531D01*
X342718Y618422D01*
X343912Y619285D01*
X345126Y620118D01*
X346360Y620921D01*
X347614Y621694D01*
X348886Y622435D01*
X350176Y623145D01*
X351483Y623823D01*
X352807Y624469D01*
X354146Y625083D01*
X355499Y625663D01*
X356866Y626210D01*
X358247Y626723D01*
X359639Y627202D01*
X361043Y627646D01*
X362457Y628057D01*
X363881Y628432D01*
X365314Y628772D01*
X366755Y629077D01*
X368202Y629347D01*
X369656Y629581D01*
X371115Y629779D01*
X372579Y629941D01*
X374046Y630067D01*
X375516Y630158D01*
X376988Y630212D01*
X378460Y630230D01*
X379932Y630212D01*
X381404Y630158D01*
X382874Y630067D01*
X384341Y629941D01*
X385805Y629779D01*
X387264Y629581D01*
X388718Y629347D01*
X390165Y629077D01*
X391606Y628772D01*
X393039Y628432D01*
X394463Y628057D01*
X395877Y627646D01*
X397281Y627202D01*
X398673Y626723D01*
X400054Y626210D01*
X401421Y625663D01*
X402774Y625083D01*
X404113Y624469D01*
X405437Y623823D01*
X406744Y623145D01*
X408034Y622435D01*
X409306Y621694D01*
X410560Y620921D01*
X411794Y620118D01*
X413008Y619285D01*
X414202Y618422D01*
X415374Y617531D01*
X416524Y616611D01*
X417650Y615663D01*
X418754Y614687D01*
X419832Y613685D01*
X420886Y612656D01*
X421915Y611602D01*
X422917Y610524D01*
X423893Y609420D01*
X424841Y608294D01*
X425761Y607144D01*
X426652Y605972D01*
X427515Y604778D01*
X428348Y603564D01*
X429151Y602330D01*
X429924Y601076D01*
X430665Y599804D01*
X431375Y598514D01*
X432053Y597207D01*
X432699Y595883D01*
X433313Y594544D01*
X433893Y593191D01*
X434440Y591824D01*
X434953Y590443D01*
X435432Y589051D01*
X435876Y587647D01*
X436287Y586233D01*
X436662Y584809D01*
X437002Y583376D01*
X437307Y581935D01*
X437577Y580488D01*
X437811Y579034D01*
X438009Y577575D01*
X438171Y576111D01*
X438297Y574644D01*
X438388Y573174D01*
X438442Y571702D01*
X438460Y570230D01*
X438442Y568758D01*
X438388Y567286D01*
X438297Y565816D01*
X438171Y564349D01*
X438009Y562885D01*
X437811Y561426D01*
X437577Y559972D01*
X437307Y558525D01*
X437002Y557084D01*
X436662Y555651D01*
X436287Y554227D01*
X435876Y552813D01*
X435432Y551409D01*
X434953Y550017D01*
X434440Y548636D01*
X433893Y547269D01*
X433313Y545916D01*
X432699Y544577D01*
X432053Y543253D01*
X431375Y541946D01*
X430665Y540656D01*
X429924Y539384D01*
X429151Y538130D01*
X428348Y536896D01*
X427515Y535682D01*
X426652Y534488D01*
X425761Y533316D01*
X424841Y532166D01*
X423893Y531040D01*
X422917Y529936D01*
X421915Y528858D01*
X420886Y527804D01*
X419832Y526775D01*
X418754Y525773D01*
X417650Y524797D01*
X416524Y523849D01*
X415374Y522929D01*
X414202Y522038D01*
X413008Y521175D01*
X411794Y520342D01*
X410560Y519539D01*
X409306Y518766D01*
X408034Y518025D01*
X406744Y517315D01*
X405437Y516637D01*
X404113Y515991D01*
X402774Y515377D01*
X401421Y514797D01*
X400054Y514250D01*
X398673Y513737D01*
X397281Y513258D01*
X395877Y512814D01*
X394463Y512403D01*
X393039Y512028D01*
X391606Y511688D01*
X390165Y511383D01*
X388718Y511113D01*
X387264Y510879D01*
X385805Y510681D01*
X384341Y510519D01*
X382874Y510393D01*
X381404Y510302D01*
X379932Y510248D01*
X378460Y510230D01*
X376988Y510248D01*
X375516Y510302D01*
X374046Y510393D01*
X372579Y510519D01*
X371115Y510681D01*
X369656Y510879D01*
X368202Y511113D01*
X366755Y511383D01*
X365314Y511688D01*
X363881Y512028D01*
X362457Y512403D01*
X361043Y512814D01*
X359639Y513258D01*
X358247Y513737D01*
X356866Y514250D01*
X355499Y514797D01*
X354146Y515377D01*
X352807Y515991D01*
X351483Y516637D01*
X350176Y517315D01*
X348886Y518025D01*
X347614Y518766D01*
X346360Y519539D01*
X345126Y520342D01*
X343912Y521175D01*
X342718Y522038D01*
X341546Y522929D01*
X340396Y523849D01*
X339270Y524797D01*
X338166Y525773D01*
X337088Y526775D01*
X336034Y527804D01*
X335005Y528858D01*
X334003Y529936D01*
X333027Y531040D01*
X332079Y532166D01*
X331159Y533316D01*
X330268Y534488D01*
X329405Y535682D01*
X328572Y536896D01*
X327769Y538130D01*
X326996Y539384D01*
X326255Y540656D01*
X325545Y541946D01*
X324867Y543253D01*
X324221Y544577D01*
X323607Y545916D01*
X323027Y547269D01*
X322480Y548636D01*
X321967Y550017D01*
X321488Y551409D01*
X321044Y552813D01*
X320633Y554227D01*
X320258Y555651D01*
X319918Y557084D01*
X319613Y558525D01*
X319343Y559972D01*
X319109Y561426D01*
X318911Y562885D01*
X318749Y564349D01*
X318623Y565816D01*
X318532Y567286D01*
X318478Y568758D01*
X318460Y570230D01*
X413710Y426720D02*
X413728Y428192D01*
X413782Y429664D01*
X413873Y431134D01*
X413999Y432601D01*
X414161Y434065D01*
X414359Y435524D01*
X414593Y436978D01*
X414863Y438425D01*
X415168Y439866D01*
X415508Y441299D01*
X415883Y442723D01*
X416294Y444137D01*
X416738Y445541D01*
X417217Y446933D01*
X417730Y448314D01*
X418277Y449681D01*
X418857Y451034D01*
X419471Y452373D01*
X420117Y453697D01*
X420795Y455004D01*
X421505Y456294D01*
X422246Y457566D01*
X423019Y458820D01*
X423822Y460054D01*
X424655Y461268D01*
X425518Y462462D01*
X426409Y463634D01*
X427329Y464784D01*
X428277Y465910D01*
X429253Y467014D01*
X430255Y468092D01*
X431284Y469146D01*
X432338Y470175D01*
X433416Y471177D01*
X434520Y472153D01*
X435646Y473101D01*
X436796Y474021D01*
X437968Y474912D01*
X439162Y475775D01*
X440376Y476608D01*
X441610Y477411D01*
X442864Y478184D01*
X444136Y478925D01*
X445426Y479635D01*
X446733Y480313D01*
X448057Y480959D01*
X449396Y481573D01*
X450749Y482153D01*
X452116Y482700D01*
X453497Y483213D01*
X454889Y483692D01*
X456293Y484136D01*
X457707Y484547D01*
X459131Y484922D01*
X460564Y485262D01*
X462005Y485567D01*
X463452Y485837D01*
X464906Y486071D01*
X466365Y486269D01*
X467829Y486431D01*
X469296Y486557D01*
X470766Y486648D01*
X472238Y486702D01*
X473710Y486720D01*
X475182Y486702D01*
X476654Y486648D01*
X478124Y486557D01*
X479591Y486431D01*
X481055Y486269D01*
X482514Y486071D01*
X483968Y485837D01*
X485415Y485567D01*
X486856Y485262D01*
X488289Y484922D01*
X489713Y484547D01*
X491127Y484136D01*
X492531Y483692D01*
X493923Y483213D01*
X495304Y482700D01*
X496671Y482153D01*
X498024Y481573D01*
X499363Y480959D01*
X500687Y480313D01*
X501994Y479635D01*
X503284Y478925D01*
X504556Y478184D01*
X505810Y477411D01*
X507044Y476608D01*
X508258Y475775D01*
X509452Y474912D01*
X510624Y474021D01*
X511774Y473101D01*
X512900Y472153D01*
X514004Y471177D01*
X515082Y470175D01*
X516136Y469146D01*
X517165Y468092D01*
X518167Y467014D01*
X519143Y465910D01*
X520091Y464784D01*
X521011Y463634D01*
X521902Y462462D01*
X522765Y461268D01*
X523598Y460054D01*
X524401Y458820D01*
X525174Y457566D01*
X525915Y456294D01*
X526625Y455004D01*
X527303Y453697D01*
X527949Y452373D01*
X528563Y451034D01*
X529143Y449681D01*
X529690Y448314D01*
X530203Y446933D01*
X530682Y445541D01*
X531126Y444137D01*
X531537Y442723D01*
X531912Y441299D01*
X532252Y439866D01*
X532557Y438425D01*
X532827Y436978D01*
X533061Y435524D01*
X533259Y434065D01*
X533421Y432601D01*
X533547Y431134D01*
X533638Y429664D01*
X533692Y428192D01*
X533710Y426720D01*
X533692Y425248D01*
X533638Y423776D01*
X533547Y422306D01*
X533421Y420839D01*
X533259Y419375D01*
X533061Y417916D01*
X532827Y416462D01*
X532557Y415015D01*
X532252Y413574D01*
X531912Y412141D01*
X531537Y410717D01*
X531126Y409303D01*
X530682Y407899D01*
X530203Y406507D01*
X529690Y405126D01*
X529143Y403759D01*
X528563Y402406D01*
X527949Y401067D01*
X527303Y399743D01*
X526625Y398436D01*
X525915Y397146D01*
X525174Y395874D01*
X524401Y394620D01*
X523598Y393386D01*
X522765Y392172D01*
X521902Y390978D01*
X521011Y389806D01*
X520091Y388656D01*
X519143Y387530D01*
X518167Y386426D01*
X517165Y385348D01*
X516136Y384294D01*
X515082Y383265D01*
X514004Y382263D01*
X512900Y381287D01*
X511774Y380339D01*
X510624Y379419D01*
X509452Y378528D01*
X508258Y377665D01*
X507044Y376832D01*
X505810Y376029D01*
X504556Y375256D01*
X503284Y374515D01*
X501994Y373805D01*
X500687Y373127D01*
X499363Y372481D01*
X498024Y371867D01*
X496671Y371287D01*
X495304Y370740D01*
X493923Y370227D01*
X492531Y369748D01*
X491127Y369304D01*
X489713Y368893D01*
X488289Y368518D01*
X486856Y368178D01*
X485415Y367873D01*
X483968Y367603D01*
X482514Y367369D01*
X481055Y367171D01*
X479591Y367009D01*
X478124Y366883D01*
X476654Y366792D01*
X475182Y366738D01*
X473710Y366720D01*
X472238Y366738D01*
X470766Y366792D01*
X469296Y366883D01*
X467829Y367009D01*
X466365Y367171D01*
X464906Y367369D01*
X463452Y367603D01*
X462005Y367873D01*
X460564Y368178D01*
X459131Y368518D01*
X457707Y368893D01*
X456293Y369304D01*
X454889Y369748D01*
X453497Y370227D01*
X452116Y370740D01*
X450749Y371287D01*
X449396Y371867D01*
X448057Y372481D01*
X446733Y373127D01*
X445426Y373805D01*
X444136Y374515D01*
X442864Y375256D01*
X441610Y376029D01*
X440376Y376832D01*
X439162Y377665D01*
X437968Y378528D01*
X436796Y379419D01*
X435646Y380339D01*
X434520Y381287D01*
X433416Y382263D01*
X432338Y383265D01*
X431284Y384294D01*
X430255Y385348D01*
X429253Y386426D01*
X428277Y387530D01*
X427329Y388656D01*
X426409Y389806D01*
X425518Y390978D01*
X424655Y392172D01*
X423822Y393386D01*
X423019Y394620D01*
X422246Y395874D01*
X421505Y397146D01*
X420795Y398436D01*
X420117Y399743D01*
X419471Y401067D01*
X418857Y402406D01*
X418277Y403759D01*
X417730Y405126D01*
X417217Y406507D01*
X416738Y407899D01*
X416294Y409303D01*
X415883Y410717D01*
X415508Y412141D01*
X415168Y413574D01*
X414863Y415015D01*
X414593Y416462D01*
X414359Y417916D01*
X414161Y419375D01*
X413999Y420839D01*
X413873Y422306D01*
X413782Y423776D01*
X413728Y425248D01*
X413710Y426720D01*
X368300Y0D02*
X0Y0D01*
X469900Y0D02*
X584200Y0D01*
X584200Y127000D01*
X584200Y533400D02*
X584200Y711200D01*
X584200Y1016000D02*
X584200Y1079500D01*
X342900Y1079500D01*
X241300Y1079500D02*
X0Y1079500D01*
X0Y127000D02*
X0Y0D01*
X0Y127000D02*
X25400Y127000D01*
X25400Y228600D01*
X0Y228600D01*
X558800Y127000D02*
X584200Y127000D01*
X241300Y1054100D02*
X241300Y1079500D01*
X241300Y1054100D02*
X342900Y1054100D01*
X342900Y1079500D01*
X25400Y1016000D02*
X0Y1016000D01*
X25400Y1016000D02*
X25400Y762000D01*
X0Y762000D01*
X0Y1016000D02*
X0Y1079500D01*
X0Y762000D02*
X0Y228600D01*
X558800Y127000D02*
X558800Y533400D01*
X584200Y533400D01*
X469900Y88900D02*
X469900Y0D01*
X469900Y88900D02*
X368300Y88900D01*
X368300Y0D01*
X558800Y1016000D02*
X584200Y1016000D01*
X558800Y1016000D02*
X558800Y711200D01*
X584200Y711200D01*
M02*
