G04 EAGLE Gerber RS-274X export*
G75*
%MOMM*%
%FSLAX34Y34*%
%LPD*%
%INSoldermask Bottom*%
%IPPOS*%
%AMOC8*
5,1,8,0,0,1.08239X$1,22.5*%
G01*
%ADD10C,0.750000*%
%ADD11R,1.370000X0.760400*%
%ADD12R,1.370000X0.735000*%
%ADD13C,1.979600*%
%ADD14R,0.760400X1.370000*%
%ADD15C,0.735000*%
%ADD16C,3.148000*%
%ADD17R,1.600000X4.100000*%
%ADD18R,4.100000X1.600000*%
%ADD19C,1.100000*%
%ADD20C,0.850000*%

G36*
X245175Y807097D02*
X245175Y807097D01*
X245241Y807099D01*
X245284Y807117D01*
X245331Y807125D01*
X245388Y807159D01*
X245448Y807184D01*
X245483Y807215D01*
X245524Y807240D01*
X245566Y807291D01*
X245614Y807335D01*
X245636Y807377D01*
X245665Y807414D01*
X245686Y807476D01*
X245717Y807535D01*
X245725Y807589D01*
X245737Y807626D01*
X245736Y807666D01*
X245744Y807720D01*
X245744Y811530D01*
X245733Y811595D01*
X245731Y811661D01*
X245713Y811704D01*
X245705Y811751D01*
X245671Y811808D01*
X245646Y811868D01*
X245615Y811903D01*
X245590Y811944D01*
X245539Y811986D01*
X245495Y812034D01*
X245453Y812056D01*
X245416Y812085D01*
X245354Y812106D01*
X245295Y812137D01*
X245241Y812145D01*
X245204Y812157D01*
X245164Y812156D01*
X245110Y812164D01*
X242570Y812164D01*
X242505Y812153D01*
X242439Y812151D01*
X242396Y812133D01*
X242349Y812125D01*
X242292Y812091D01*
X242232Y812066D01*
X242197Y812035D01*
X242156Y812010D01*
X242115Y811959D01*
X242066Y811915D01*
X242044Y811873D01*
X242015Y811836D01*
X241994Y811774D01*
X241963Y811715D01*
X241955Y811661D01*
X241943Y811624D01*
X241943Y811620D01*
X241943Y811619D01*
X241944Y811584D01*
X241936Y811530D01*
X241936Y807720D01*
X241947Y807655D01*
X241949Y807589D01*
X241967Y807546D01*
X241975Y807499D01*
X242009Y807442D01*
X242034Y807382D01*
X242065Y807347D01*
X242090Y807306D01*
X242141Y807265D01*
X242185Y807216D01*
X242227Y807194D01*
X242264Y807165D01*
X242326Y807144D01*
X242385Y807113D01*
X242439Y807105D01*
X242476Y807093D01*
X242516Y807094D01*
X242570Y807086D01*
X245110Y807086D01*
X245175Y807097D01*
G37*
G36*
X369635Y55257D02*
X369635Y55257D01*
X369701Y55259D01*
X369744Y55277D01*
X369791Y55285D01*
X369848Y55319D01*
X369908Y55344D01*
X369943Y55375D01*
X369984Y55400D01*
X370026Y55451D01*
X370074Y55495D01*
X370096Y55537D01*
X370125Y55574D01*
X370146Y55636D01*
X370177Y55695D01*
X370185Y55749D01*
X370197Y55786D01*
X370196Y55826D01*
X370204Y55880D01*
X370204Y59690D01*
X370193Y59755D01*
X370191Y59821D01*
X370173Y59864D01*
X370165Y59911D01*
X370131Y59968D01*
X370106Y60028D01*
X370075Y60063D01*
X370050Y60104D01*
X369999Y60146D01*
X369955Y60194D01*
X369913Y60216D01*
X369876Y60245D01*
X369814Y60266D01*
X369755Y60297D01*
X369701Y60305D01*
X369664Y60317D01*
X369624Y60316D01*
X369570Y60324D01*
X367030Y60324D01*
X366965Y60313D01*
X366899Y60311D01*
X366856Y60293D01*
X366809Y60285D01*
X366752Y60251D01*
X366692Y60226D01*
X366657Y60195D01*
X366616Y60170D01*
X366575Y60119D01*
X366526Y60075D01*
X366504Y60033D01*
X366475Y59996D01*
X366454Y59934D01*
X366423Y59875D01*
X366415Y59821D01*
X366403Y59784D01*
X366403Y59780D01*
X366403Y59779D01*
X366404Y59744D01*
X366396Y59690D01*
X366396Y55880D01*
X366407Y55815D01*
X366409Y55749D01*
X366427Y55706D01*
X366435Y55659D01*
X366469Y55602D01*
X366494Y55542D01*
X366525Y55507D01*
X366550Y55466D01*
X366601Y55425D01*
X366645Y55376D01*
X366687Y55354D01*
X366724Y55325D01*
X366786Y55304D01*
X366845Y55273D01*
X366899Y55265D01*
X366936Y55253D01*
X366976Y55254D01*
X367030Y55246D01*
X369570Y55246D01*
X369635Y55257D01*
G37*
G36*
X105475Y537222D02*
X105475Y537222D01*
X105541Y537224D01*
X105584Y537242D01*
X105631Y537250D01*
X105688Y537284D01*
X105748Y537309D01*
X105783Y537340D01*
X105824Y537365D01*
X105866Y537416D01*
X105914Y537460D01*
X105936Y537502D01*
X105965Y537539D01*
X105986Y537601D01*
X106017Y537660D01*
X106025Y537714D01*
X106037Y537751D01*
X106036Y537791D01*
X106044Y537845D01*
X106044Y541655D01*
X106033Y541720D01*
X106031Y541786D01*
X106013Y541829D01*
X106005Y541876D01*
X105971Y541933D01*
X105946Y541993D01*
X105915Y542028D01*
X105890Y542069D01*
X105839Y542111D01*
X105795Y542159D01*
X105753Y542181D01*
X105716Y542210D01*
X105654Y542231D01*
X105595Y542262D01*
X105541Y542270D01*
X105504Y542282D01*
X105464Y542281D01*
X105410Y542289D01*
X102870Y542289D01*
X102805Y542278D01*
X102739Y542276D01*
X102696Y542258D01*
X102649Y542250D01*
X102592Y542216D01*
X102532Y542191D01*
X102497Y542160D01*
X102456Y542135D01*
X102415Y542084D01*
X102366Y542040D01*
X102344Y541998D01*
X102315Y541961D01*
X102294Y541899D01*
X102263Y541840D01*
X102255Y541786D01*
X102243Y541749D01*
X102243Y541745D01*
X102243Y541744D01*
X102244Y541709D01*
X102236Y541655D01*
X102236Y537845D01*
X102247Y537780D01*
X102249Y537714D01*
X102267Y537671D01*
X102275Y537624D01*
X102309Y537567D01*
X102334Y537507D01*
X102365Y537472D01*
X102390Y537431D01*
X102441Y537390D01*
X102485Y537341D01*
X102527Y537319D01*
X102564Y537290D01*
X102626Y537269D01*
X102685Y537238D01*
X102739Y537230D01*
X102776Y537218D01*
X102816Y537219D01*
X102870Y537211D01*
X105410Y537211D01*
X105475Y537222D01*
G37*
G36*
X268670Y807097D02*
X268670Y807097D01*
X268736Y807099D01*
X268779Y807117D01*
X268826Y807125D01*
X268883Y807159D01*
X268943Y807184D01*
X268978Y807215D01*
X269019Y807240D01*
X269061Y807291D01*
X269109Y807335D01*
X269131Y807377D01*
X269160Y807414D01*
X269181Y807476D01*
X269212Y807535D01*
X269220Y807589D01*
X269232Y807626D01*
X269231Y807666D01*
X269239Y807720D01*
X269239Y811530D01*
X269228Y811595D01*
X269226Y811661D01*
X269208Y811704D01*
X269200Y811751D01*
X269166Y811808D01*
X269141Y811868D01*
X269110Y811903D01*
X269085Y811944D01*
X269034Y811986D01*
X268990Y812034D01*
X268948Y812056D01*
X268911Y812085D01*
X268849Y812106D01*
X268790Y812137D01*
X268736Y812145D01*
X268699Y812157D01*
X268659Y812156D01*
X268605Y812164D01*
X266065Y812164D01*
X266000Y812153D01*
X265934Y812151D01*
X265891Y812133D01*
X265844Y812125D01*
X265787Y812091D01*
X265727Y812066D01*
X265692Y812035D01*
X265651Y812010D01*
X265610Y811959D01*
X265561Y811915D01*
X265539Y811873D01*
X265510Y811836D01*
X265489Y811774D01*
X265458Y811715D01*
X265450Y811661D01*
X265438Y811624D01*
X265438Y811620D01*
X265438Y811619D01*
X265439Y811584D01*
X265431Y811530D01*
X265431Y807720D01*
X265442Y807655D01*
X265444Y807589D01*
X265462Y807546D01*
X265470Y807499D01*
X265504Y807442D01*
X265529Y807382D01*
X265560Y807347D01*
X265585Y807306D01*
X265636Y807265D01*
X265680Y807216D01*
X265722Y807194D01*
X265759Y807165D01*
X265821Y807144D01*
X265880Y807113D01*
X265934Y807105D01*
X265971Y807093D01*
X266011Y807094D01*
X266065Y807086D01*
X268605Y807086D01*
X268670Y807097D01*
G37*
G36*
X328995Y55257D02*
X328995Y55257D01*
X329061Y55259D01*
X329104Y55277D01*
X329151Y55285D01*
X329208Y55319D01*
X329268Y55344D01*
X329303Y55375D01*
X329344Y55400D01*
X329386Y55451D01*
X329434Y55495D01*
X329456Y55537D01*
X329485Y55574D01*
X329506Y55636D01*
X329537Y55695D01*
X329545Y55749D01*
X329557Y55786D01*
X329556Y55826D01*
X329564Y55880D01*
X329564Y59690D01*
X329553Y59755D01*
X329551Y59821D01*
X329533Y59864D01*
X329525Y59911D01*
X329491Y59968D01*
X329466Y60028D01*
X329435Y60063D01*
X329410Y60104D01*
X329359Y60146D01*
X329315Y60194D01*
X329273Y60216D01*
X329236Y60245D01*
X329174Y60266D01*
X329115Y60297D01*
X329061Y60305D01*
X329024Y60317D01*
X328984Y60316D01*
X328930Y60324D01*
X326390Y60324D01*
X326325Y60313D01*
X326259Y60311D01*
X326216Y60293D01*
X326169Y60285D01*
X326112Y60251D01*
X326052Y60226D01*
X326017Y60195D01*
X325976Y60170D01*
X325935Y60119D01*
X325886Y60075D01*
X325864Y60033D01*
X325835Y59996D01*
X325814Y59934D01*
X325783Y59875D01*
X325775Y59821D01*
X325763Y59784D01*
X325763Y59780D01*
X325763Y59779D01*
X325764Y59744D01*
X325756Y59690D01*
X325756Y55880D01*
X325767Y55815D01*
X325769Y55749D01*
X325787Y55706D01*
X325795Y55659D01*
X325829Y55602D01*
X325854Y55542D01*
X325885Y55507D01*
X325910Y55466D01*
X325961Y55425D01*
X326005Y55376D01*
X326047Y55354D01*
X326084Y55325D01*
X326146Y55304D01*
X326205Y55273D01*
X326259Y55265D01*
X326296Y55253D01*
X326336Y55254D01*
X326390Y55246D01*
X328930Y55246D01*
X328995Y55257D01*
G37*
G36*
X105475Y547382D02*
X105475Y547382D01*
X105541Y547384D01*
X105584Y547402D01*
X105631Y547410D01*
X105688Y547444D01*
X105748Y547469D01*
X105783Y547500D01*
X105824Y547525D01*
X105866Y547576D01*
X105914Y547620D01*
X105936Y547662D01*
X105965Y547699D01*
X105986Y547761D01*
X106017Y547820D01*
X106025Y547874D01*
X106037Y547911D01*
X106036Y547951D01*
X106044Y548005D01*
X106044Y551815D01*
X106033Y551880D01*
X106031Y551946D01*
X106013Y551989D01*
X106005Y552036D01*
X105971Y552093D01*
X105946Y552153D01*
X105915Y552188D01*
X105890Y552229D01*
X105839Y552271D01*
X105795Y552319D01*
X105753Y552341D01*
X105716Y552370D01*
X105654Y552391D01*
X105595Y552422D01*
X105541Y552430D01*
X105504Y552442D01*
X105464Y552441D01*
X105410Y552449D01*
X102870Y552449D01*
X102805Y552438D01*
X102739Y552436D01*
X102696Y552418D01*
X102649Y552410D01*
X102592Y552376D01*
X102532Y552351D01*
X102497Y552320D01*
X102456Y552295D01*
X102415Y552244D01*
X102366Y552200D01*
X102344Y552158D01*
X102315Y552121D01*
X102294Y552059D01*
X102263Y552000D01*
X102255Y551946D01*
X102243Y551909D01*
X102243Y551905D01*
X102243Y551904D01*
X102244Y551869D01*
X102236Y551815D01*
X102236Y548005D01*
X102247Y547940D01*
X102249Y547874D01*
X102267Y547831D01*
X102275Y547784D01*
X102309Y547727D01*
X102334Y547667D01*
X102365Y547632D01*
X102390Y547591D01*
X102441Y547550D01*
X102485Y547501D01*
X102527Y547479D01*
X102564Y547450D01*
X102626Y547429D01*
X102685Y547398D01*
X102739Y547390D01*
X102776Y547378D01*
X102816Y547379D01*
X102870Y547371D01*
X105410Y547371D01*
X105475Y547382D01*
G37*
G36*
X367095Y1014107D02*
X367095Y1014107D01*
X367161Y1014109D01*
X367204Y1014127D01*
X367251Y1014135D01*
X367308Y1014169D01*
X367368Y1014194D01*
X367403Y1014225D01*
X367444Y1014250D01*
X367486Y1014301D01*
X367534Y1014345D01*
X367556Y1014387D01*
X367585Y1014424D01*
X367606Y1014486D01*
X367637Y1014545D01*
X367645Y1014599D01*
X367657Y1014636D01*
X367656Y1014676D01*
X367664Y1014730D01*
X367664Y1017270D01*
X367653Y1017335D01*
X367651Y1017401D01*
X367633Y1017444D01*
X367625Y1017491D01*
X367591Y1017548D01*
X367566Y1017608D01*
X367535Y1017643D01*
X367510Y1017684D01*
X367459Y1017726D01*
X367415Y1017774D01*
X367373Y1017796D01*
X367336Y1017825D01*
X367274Y1017846D01*
X367215Y1017877D01*
X367161Y1017885D01*
X367124Y1017897D01*
X367084Y1017896D01*
X367030Y1017904D01*
X363220Y1017904D01*
X363155Y1017893D01*
X363089Y1017891D01*
X363046Y1017873D01*
X362999Y1017865D01*
X362942Y1017831D01*
X362882Y1017806D01*
X362847Y1017775D01*
X362806Y1017750D01*
X362765Y1017699D01*
X362716Y1017655D01*
X362694Y1017613D01*
X362665Y1017576D01*
X362644Y1017514D01*
X362613Y1017455D01*
X362605Y1017401D01*
X362593Y1017364D01*
X362593Y1017361D01*
X362594Y1017324D01*
X362586Y1017270D01*
X362586Y1014730D01*
X362597Y1014665D01*
X362599Y1014599D01*
X362617Y1014556D01*
X362625Y1014509D01*
X362659Y1014452D01*
X362684Y1014392D01*
X362715Y1014357D01*
X362740Y1014316D01*
X362791Y1014275D01*
X362835Y1014226D01*
X362877Y1014204D01*
X362914Y1014175D01*
X362976Y1014154D01*
X363035Y1014123D01*
X363089Y1014115D01*
X363126Y1014103D01*
X363166Y1014104D01*
X363220Y1014096D01*
X367030Y1014096D01*
X367095Y1014107D01*
G37*
G36*
X367095Y1038237D02*
X367095Y1038237D01*
X367161Y1038239D01*
X367204Y1038257D01*
X367251Y1038265D01*
X367308Y1038299D01*
X367368Y1038324D01*
X367403Y1038355D01*
X367444Y1038380D01*
X367486Y1038431D01*
X367534Y1038475D01*
X367556Y1038517D01*
X367585Y1038554D01*
X367606Y1038616D01*
X367637Y1038675D01*
X367645Y1038729D01*
X367657Y1038766D01*
X367656Y1038806D01*
X367664Y1038860D01*
X367664Y1041400D01*
X367653Y1041465D01*
X367651Y1041531D01*
X367633Y1041574D01*
X367625Y1041621D01*
X367591Y1041678D01*
X367566Y1041738D01*
X367535Y1041773D01*
X367510Y1041814D01*
X367459Y1041856D01*
X367415Y1041904D01*
X367373Y1041926D01*
X367336Y1041955D01*
X367274Y1041976D01*
X367215Y1042007D01*
X367161Y1042015D01*
X367124Y1042027D01*
X367084Y1042026D01*
X367030Y1042034D01*
X363220Y1042034D01*
X363155Y1042023D01*
X363089Y1042021D01*
X363046Y1042003D01*
X362999Y1041995D01*
X362942Y1041961D01*
X362882Y1041936D01*
X362847Y1041905D01*
X362806Y1041880D01*
X362765Y1041829D01*
X362716Y1041785D01*
X362694Y1041743D01*
X362665Y1041706D01*
X362644Y1041644D01*
X362613Y1041585D01*
X362605Y1041531D01*
X362593Y1041494D01*
X362593Y1041491D01*
X362594Y1041454D01*
X362586Y1041400D01*
X362586Y1038860D01*
X362597Y1038795D01*
X362599Y1038729D01*
X362617Y1038686D01*
X362625Y1038639D01*
X362659Y1038582D01*
X362684Y1038522D01*
X362715Y1038487D01*
X362740Y1038446D01*
X362791Y1038405D01*
X362835Y1038356D01*
X362877Y1038334D01*
X362914Y1038305D01*
X362976Y1038284D01*
X363035Y1038253D01*
X363089Y1038245D01*
X363126Y1038233D01*
X363166Y1038234D01*
X363220Y1038226D01*
X367030Y1038226D01*
X367095Y1038237D01*
G37*
G36*
X367095Y1062367D02*
X367095Y1062367D01*
X367161Y1062369D01*
X367204Y1062387D01*
X367251Y1062395D01*
X367308Y1062429D01*
X367368Y1062454D01*
X367403Y1062485D01*
X367444Y1062510D01*
X367486Y1062561D01*
X367534Y1062605D01*
X367556Y1062647D01*
X367585Y1062684D01*
X367606Y1062746D01*
X367637Y1062805D01*
X367645Y1062859D01*
X367657Y1062896D01*
X367656Y1062936D01*
X367664Y1062990D01*
X367664Y1065530D01*
X367653Y1065595D01*
X367651Y1065661D01*
X367633Y1065704D01*
X367625Y1065751D01*
X367591Y1065808D01*
X367566Y1065868D01*
X367535Y1065903D01*
X367510Y1065944D01*
X367459Y1065986D01*
X367415Y1066034D01*
X367373Y1066056D01*
X367336Y1066085D01*
X367274Y1066106D01*
X367215Y1066137D01*
X367161Y1066145D01*
X367124Y1066157D01*
X367084Y1066156D01*
X367030Y1066164D01*
X363220Y1066164D01*
X363155Y1066153D01*
X363089Y1066151D01*
X363046Y1066133D01*
X362999Y1066125D01*
X362942Y1066091D01*
X362882Y1066066D01*
X362847Y1066035D01*
X362806Y1066010D01*
X362765Y1065959D01*
X362716Y1065915D01*
X362694Y1065873D01*
X362665Y1065836D01*
X362644Y1065774D01*
X362613Y1065715D01*
X362605Y1065661D01*
X362593Y1065624D01*
X362593Y1065621D01*
X362594Y1065584D01*
X362586Y1065530D01*
X362586Y1062990D01*
X362597Y1062925D01*
X362599Y1062859D01*
X362617Y1062816D01*
X362625Y1062769D01*
X362659Y1062712D01*
X362684Y1062652D01*
X362715Y1062617D01*
X362740Y1062576D01*
X362791Y1062535D01*
X362835Y1062486D01*
X362877Y1062464D01*
X362914Y1062435D01*
X362976Y1062414D01*
X363035Y1062383D01*
X363089Y1062375D01*
X363126Y1062363D01*
X363166Y1062364D01*
X363220Y1062356D01*
X367030Y1062356D01*
X367095Y1062367D01*
G37*
D10*
X212400Y49050D03*
X270200Y49050D03*
D11*
X327660Y62992D03*
X327660Y52578D03*
X368300Y62992D03*
X368300Y52578D03*
D12*
X280670Y86614D03*
X280670Y78486D03*
D11*
X104140Y555244D03*
X104140Y544830D03*
X104140Y534416D03*
D13*
X406400Y25400D03*
X431800Y25400D03*
D14*
X370332Y1064260D03*
X359918Y1064260D03*
X370332Y1016000D03*
X359918Y1016000D03*
X370332Y1040130D03*
X359918Y1040130D03*
D11*
X243840Y814832D03*
X243840Y804418D03*
X267335Y814832D03*
X267335Y804418D03*
D13*
X571500Y241300D03*
X571500Y266700D03*
X571500Y292100D03*
X571500Y317500D03*
X571500Y342900D03*
X571500Y368300D03*
X571500Y393700D03*
X571500Y419100D03*
X571500Y444500D03*
X571500Y469900D03*
X571500Y495300D03*
X571500Y520700D03*
D12*
X57150Y540766D03*
X57150Y548894D03*
X80645Y540766D03*
X80645Y548894D03*
D15*
X7620Y7620D03*
X577215Y1072515D03*
D16*
X25400Y1054100D03*
X558800Y24130D03*
X25400Y25400D03*
X558800Y1054100D03*
D17*
X266700Y1041400D03*
X317500Y1041400D03*
D18*
X546100Y203200D03*
X546100Y152400D03*
X38100Y152400D03*
X38100Y203200D03*
D12*
X165735Y37211D03*
X165735Y45339D03*
D19*
X52705Y654030D03*
X52705Y734030D03*
D13*
X12700Y774700D03*
X12700Y800100D03*
X12700Y825500D03*
X12700Y850900D03*
X12700Y876300D03*
X12700Y901700D03*
X12700Y927100D03*
X12700Y952500D03*
X12700Y977900D03*
X12700Y1003300D03*
D20*
X26160Y389765D03*
X26160Y474765D03*
D13*
X571500Y723900D03*
X571500Y749300D03*
X571500Y774700D03*
X571500Y800100D03*
X571500Y825500D03*
X571500Y850900D03*
X571500Y876300D03*
X571500Y901700D03*
X571500Y927100D03*
X571500Y952500D03*
X571500Y977900D03*
X571500Y1003300D03*
X38100Y723900D03*
X38100Y698500D03*
X38100Y673100D03*
M02*
