M48
;GenerationSoftware,Autodesk,EAGLE,9.6.2*%
;CreationDate,2022-05-09T19:08:53Z*%
FMAT,2
ICI,OFF
METRIC,TZ,000.000
T7C0.305
T6C0.400
T5C0.650
T4C0.750
T3C1.000
T2C1.016
T1C3.048
%
G90
M71
T1
X2540Y105410
X55880Y2413
X2540Y2540
X55880Y105410
T2
X57150Y97790
X57150Y95250
X57150Y92710
X57150Y90170
X57150Y87630
X57150Y85090
X57150Y82550
X57150Y80010
X57150Y77470
X57150Y74930
X57150Y72390
X1270Y100330
X1270Y97790
X1270Y95250
X1270Y92710
X1270Y90170
X1270Y87630
X1270Y85090
X1270Y82550
X1270Y80010
X1270Y77470
X57150Y52070
X57150Y49530
X57150Y46990
X57150Y44450
X57150Y41910
X57150Y39370
X57150Y36830
X57150Y34290
X57150Y31750
X57150Y29210
X57150Y26670
X57150Y24130
X43180Y2540
X40640Y2540
X3810Y67310
X3810Y69850
X3810Y72390
X57150Y100330
T3
X5271Y73403
X5271Y65403
T4
X2616Y47476
X2616Y38977
T5
X27020Y4905
X21240Y4905
T6
X19812Y1255
X28448Y1255
X28448Y5435
X19812Y5435
T7
X2540Y19050
X5080Y19050
X2540Y16510
X5080Y16510
X2540Y13970
X5080Y13970
X2540Y21590
X5080Y21590
X6350Y19050
X8890Y19050
X10160Y19050
X11430Y19050
X12700Y19050
X13970Y19050
X16510Y19050
X6350Y16510
X8890Y16510
X6350Y15240
X6350Y20320
X10160Y16510
X11430Y16510
X13970Y16510
X16510Y16510
X20320Y16510
X24130Y22860
X20320Y19050
X26670Y21590
X27940Y22860
X25400Y20320
X22860Y17780
X24130Y19050
X21590Y16510
X11430Y13208
X13970Y13144
X17780Y15240
X14605Y2604
X6350Y8890
X4953Y4763
X6286Y5969
X3810Y6350
X1270Y6350
X6350Y3810
X8319Y4318
X6350Y1270
X6350Y21590
X8890Y21590
X11430Y21590
X13970Y21590
X2540Y22860
X3810Y22860
X6350Y22860
X1270Y22987
X10160Y21590
X12700Y21590
X16510Y21590
X20320Y21590
X20320Y24130
X22860Y24130
X21590Y24130
X20320Y22860
X20320Y14224
X25400Y17780
X27940Y17780
X29210Y21590
X26670Y19050
X29210Y19050
X33020Y19050
X34290Y17780
X31750Y17780
X31750Y22860
X33020Y21590
X34290Y20320
X35560Y19050
X36830Y17780
X35560Y22860
X36830Y21590
X38100Y20320
X39370Y19050
X40640Y19050
X41910Y19050
X43180Y19050
X38100Y16510
X39370Y16510
X40640Y16510
X41910Y16510
X43180Y16510
X44450Y16510
X46990Y16510
X48260Y16510
X44450Y19050
X45720Y19050
X46990Y19050
X48260Y19050
X49530Y19050
X50800Y19050
X52070Y19050
X49530Y16510
X50800Y15240
X52070Y16510
X45720Y15240
X12700Y15240
X52070Y13970
X53340Y16510
X54610Y16510
X55880Y16510
X53340Y19050
X54610Y19050
X55880Y19050
X52070Y21590
X53340Y21590
X54610Y21590
X55880Y21590
X52070Y20320
X52070Y15240
X53340Y13970
X54610Y13970
X21590Y22860
X39370Y21590
X41910Y21590
X44450Y21590
X46990Y21590
X49530Y21590
X52070Y24130
X41910Y24130
X39370Y24130
X39370Y26606
X41910Y26670
X44450Y24130
X49530Y24130
X55880Y22860
X55880Y55880
X1270Y27940
X3810Y24130
X14829Y29258
X14795Y26670
X12700Y26670
X16510Y27940
X20320Y29210
X20320Y30480
X20320Y35560
X20320Y38100
X1270Y30480
X1270Y33020
X3810Y35560
X3810Y38100
X1270Y38100
X6350Y38100
X8890Y38100
X11430Y38100
X8890Y35560
X20320Y36830
X20320Y40640
X11430Y40640
X8890Y40640
X8890Y43180
X6350Y40640
X3810Y40640
X1270Y40640
X1270Y43180
X3810Y43180
X6350Y43180
X3810Y45720
X6731Y45720
X12700Y43180
X16510Y38100
X16510Y43180
X12065Y45656
X16574Y48260
X16510Y45720
X20320Y42672
X20320Y45720
X20320Y48260
X9144Y46418
X6858Y48704
X1270Y45720
X1143Y52705
X9208Y48704
X16447Y51752
X18352Y51244
X12192Y53657
X2984Y54038
X3937Y58420
X6731Y61277
X9081Y60960
X11430Y60960
X8890Y63500
X3810Y63500
X11430Y58420
X13970Y54356
X16447Y57086
X17336Y66040
X8890Y68580
X13970Y74105
X11811Y73660
X13970Y72073
X12446Y67183
X11430Y66040
X13970Y76200
X8890Y76200
X6350Y78740
X3810Y81280
X6350Y81280
X13970Y91440
X16510Y91440
X19050Y91440
X13970Y93980
X16510Y93980
X19050Y93980
X19050Y96520
X16510Y96520
X13970Y96520
X11430Y96520
X16510Y99060
X16510Y101600
X11430Y101600
X16510Y104140
X13970Y104140
X3810Y83820
X14541Y68707
X2540Y96520
X2540Y91440
X5080Y91440
X2540Y86360
X5080Y96520
X5080Y88900
X21590Y99060
X21590Y96520
X24130Y99060
X13970Y106680
X8890Y106680
X6350Y104140
X6350Y101600
X3810Y101600
X16510Y106680
X11430Y104140
X8890Y104140
X8890Y101600
X26479Y99060
X26670Y101600
X27305Y100711
X27940Y101600
X28130Y99822
X30480Y95504
X24130Y96520
X20320Y95250
X20320Y93980
X20320Y92710
X24130Y93218
X25400Y91440
X27940Y91440
X30480Y91440
X31813Y93218
X33020Y93218
X33020Y91440
X29337Y95504
X30480Y97790
X30480Y101600
X30480Y102870
X30480Y104140
X30480Y105410
X27940Y105410
X27940Y104140
X27940Y102870
X25400Y102870
X25400Y104140
X25400Y105410
X25400Y101600
X31750Y101600
X33020Y101600
X33020Y102870
X33020Y104140
X33020Y105410
X25400Y93218
X26479Y97218
X30416Y93218
X29210Y93218
X26670Y93218
X33020Y95504
X22860Y96520
X20320Y96520
X24130Y33020
X26670Y33020
X29210Y33020
X31750Y33020
X26670Y30480
X25400Y28511
X25400Y31750
X27940Y31750
X30480Y31750
X33020Y31750
X33909Y33020
X25400Y26670
X30480Y22860
X29210Y22860
X22860Y22860
X36830Y24130
X31750Y26606
X31750Y27876
X34290Y35560
X31750Y35560
X29210Y35560
X26670Y35560
X24130Y35560
X25400Y36830
X27940Y36830
X30480Y36830
X33020Y36830
X34290Y38100
X31750Y38100
X29210Y38100
X26670Y38100
X24130Y38100
X25400Y39370
X27940Y39370
X30480Y39370
X33020Y39370
X34925Y41212
X31750Y40640
X29210Y40640
X26670Y40640
X25400Y41910
X27940Y41910
X30480Y41910
X33020Y41910
X26670Y43180
X29654Y46291
X31750Y46291
X33846Y46291
X27559Y46291
X25463Y46291
X20892Y49403
X20320Y44450
X20320Y46990
X8890Y71120
X3810Y76200
X4572Y78677
X21590Y53975
X24130Y53975
X26670Y53975
X26670Y50673
X24130Y50673
X29210Y50673
X31750Y50800
X34290Y50800
X29210Y53975
X34290Y53975
X36830Y53975
X36830Y50800
X39370Y53975
X39370Y50800
X39370Y34290
X39370Y36830
X41910Y36830
X41910Y34290
X42052Y29263
X39370Y41910
X41910Y41910
X41910Y44450
X39370Y44450
X44450Y41910
X41910Y46990
X39370Y46990
X46609Y48514
X39370Y39370
X46990Y26670
X46990Y29210
X46545Y36830
X21590Y55626
X24130Y55880
X24130Y58420
X22796Y58420
X30099Y55689
X36386Y55880
X36386Y58547
X39497Y55880
X41910Y55880
X41910Y58420
X46990Y44450
X46545Y38100
X41910Y50800
X42418Y53975
X45466Y55880
X39370Y58420
X29210Y60960
X31750Y60960
X34290Y60960
X26670Y60960
X24955Y66358
X24955Y67691
X19050Y70041
X19050Y73660
X22352Y73660
X32321Y72517
X13970Y81280
X16510Y81280
X19050Y81280
X20320Y82550
X17780Y82550
X15240Y82550
X12700Y82550
X13970Y83820
X16510Y83820
X19050Y83820
X20320Y85090
X17780Y85090
X15240Y85090
X12700Y85090
X13970Y86360
X16510Y86360
X19050Y86360
X20320Y87630
X17780Y87630
X15240Y87630
X12700Y87630
X12700Y90170
X15240Y90170
X17780Y90170
X12700Y92710
X15240Y92710
X17780Y92710
X12700Y95250
X15240Y95250
X17780Y95250
X7239Y96520
X27940Y88265
X30480Y88265
X26670Y90170
X25400Y87630
X30480Y81280
X30480Y80010
X33020Y81280
X33020Y83820
X33020Y86360
X31750Y80010
X35560Y96520
X35624Y93027
X34290Y97790
X34290Y80010
X34290Y78740
X49530Y80010
X49720Y78105
X37719Y96583
X35687Y94615
X37719Y94551
X37719Y92583
X39815Y96583
X41847Y96647
X46101Y96583
X46101Y94615
X48006Y94615
X48006Y96647
X44005Y94551
X44005Y92519
X41847Y90424
X39751Y88265
X37592Y88328
X39688Y90424
X41783Y92646
X46037Y90233
X46101Y88074
X44005Y88138
X46101Y86170
X44069Y86170
X41910Y86170
X39815Y86233
X37592Y86170
X37719Y83884
X39751Y83947
X41847Y83947
X43942Y84011
X45974Y84074
X43878Y81979
X41847Y81979
X39751Y81915
X37656Y81915
X37656Y79883
X39751Y79820
X41847Y79820
X35624Y79883
X35687Y86106
X35751Y84138
X39815Y94615
X35751Y81915
X48006Y88201
X48069Y90360
X48006Y92456
X48006Y82106
X48069Y79820
X46355Y79756
X39878Y92392
X7620Y91440
X44069Y96583
X37719Y90233
X35751Y88265
X49530Y96520
X44132Y90297
X46228Y92329
X41974Y88138
X52070Y106680
X49530Y106680
X46990Y106680
X48260Y102870
X52070Y104140
X52070Y101600
X49530Y101600
X54610Y101600
X57086Y102235
X54610Y99060
X46990Y101600
X55880Y83820
X55880Y78740
X55880Y73660
X55880Y86360
X55880Y88900
X55880Y91440
X55880Y93980
X55880Y96520
X55880Y81280
X55880Y76200
X56070Y71120
X53340Y73660
X53340Y76200
X56070Y69850
X53340Y83820
X50863Y82931
X53340Y81280
X53340Y78740
X53340Y86360
X53340Y91440
X53276Y93980
X53276Y96520
X50800Y96012
X50800Y91440
X35560Y74930
X38100Y74930
X35560Y72390
X38100Y72390
X40640Y74930
X38100Y69850
X35560Y69850
X35560Y67310
X38100Y67310
X40640Y69850
X40640Y67310
X35560Y62230
X40640Y64770
X40640Y62230
X38100Y62230
X41910Y60960
X48260Y66040
X41974Y64770
X41974Y65913
X44005Y50355
X46355Y46863
X50800Y50800
X49530Y41910
X49530Y40640
X50800Y48260
X48260Y53340
X48069Y54229
X55880Y53340
X55880Y50800
X55880Y48260
X55816Y45720
X55880Y43180
X55880Y40640
X55880Y38100
X55880Y35560
X55880Y33020
X55880Y30480
X55880Y27940
X55880Y25400
X53340Y35560
X53340Y33020
X53340Y27940
X50800Y25400
X53340Y25400
X46990Y30480
X46990Y27940
X21590Y1270
X24130Y1270
X26670Y1270
X31750Y3683
X29464Y7620
X21590Y2286
X19050Y2286
X29210Y2540
X18733Y4636
X18733Y6096
X29464Y6096
X35560Y7620
X39370Y5080
X41910Y3810
X44450Y5080
X44450Y7620
X39370Y7620
X44450Y10160
X20320Y15240
X30480Y19050
X13970Y15240
X11430Y15240
X44450Y15240
X38100Y22860
X17780Y16510
X17780Y19050
X16701Y32258
X30480Y21590
X1270Y8890
X3810Y8890
X24130Y14224
X25654Y11620
X24701Y7620
X11430Y63500
X41910Y31750
X31305Y76073
X33592Y70422
X33592Y75121
X29019Y70422
X27813Y72136
X40640Y72390
X43180Y72390
X43180Y74930
X45720Y74930
X45847Y71819
X47879Y71946
X47942Y74930
X17780Y21590
X17780Y22860
X16510Y22860
X17780Y24130
X27940Y86360
X22860Y98107
X25400Y95504
X24130Y95504
X33020Y99250
X29527Y96964
X28130Y99123
X33020Y97790
X28511Y97028
X31750Y95504
X27940Y93218
X17780Y29210
X16535Y29576
X6350Y12700
X8890Y13208
X10732Y1270
X11430Y8954
X22098Y14224
X24130Y16510
X26987Y10668
X14795Y19050
X14795Y16510
X14795Y21590
X25654Y10795
X24130Y12382
X22098Y12319
X17844Y12255
X12700Y8954
X3810Y13970
X3810Y16510
X3810Y19050
X3810Y21590
X5080Y22860
X36830Y16510
X34544Y12700
X31750Y15240
X36830Y15240
X41910Y15240
X8890Y15240
X39370Y15240
X46990Y15240
X49530Y15240
X52070Y12700
X49530Y12700
X46990Y12700
X44450Y12700
X41910Y12700
X39370Y12700
X34290Y15240
X33020Y16510
X26670Y16510
X46990Y10160
X49530Y10160
X57150Y12573
X52070Y8890
X49530Y3810
X52070Y6350
X54610Y6350
X33020Y30480
X33020Y43180
X31750Y44450
X19050Y106680
X21590Y106680
X24003Y106680
X54610Y8890
X52070Y3810
X46990Y3810
X52070Y1270
X49530Y1270
X46990Y1270
X57150Y6350
X57150Y8890
X38100Y7620
X41910Y5080
X38100Y10160
X35560Y10160
X53530Y70676
X1270Y12573
X34290Y101600
X45720Y105410
X34417Y106680
X34290Y104140
X54610Y53340
X53340Y55880
X18542Y55435
X6413Y66040
X6350Y68580
X6350Y71120
X6477Y73660
X1270Y63500
X3810Y60960
X17209Y71882
X19050Y72390
X13970Y63500
X16447Y60198
X7747Y80010
X38100Y64770
X1207Y75819
X6350Y35560
X46990Y41910
X16510Y36767
X39327Y31951
X50800Y45720
X50800Y43180
X17780Y46990
X17780Y44450
X17780Y39370
X16510Y34989
X14732Y34989
X11417Y32575
X10160Y29210
X27559Y28448
X33846Y26606
X27559Y26670
X3810Y25400
X46990Y8064
X49530Y8064
X40640Y105410
X40640Y102870
X43180Y102870
X43180Y105410
X38100Y105410
X38100Y102870
X45720Y102870
X1270Y57150
X3810Y48260
X11684Y55880
X19050Y64770
X29210Y77724
X32258Y77724
X35941Y77026
X41974Y94488
X46101Y77026
X18542Y67310
X29464Y9779
X29464Y11747
X30353Y100584
X30480Y98679
X48260Y105410
X50800Y102870
X28194Y68199
X46545Y63309
X48831Y63309
X27559Y44450
X33846Y27876
X29654Y28575
X19241Y57912
X19939Y12382
X2096Y78740
X2096Y81280
X2032Y83820
X47815Y56451
X48704Y55372
X1270Y66040
X8319Y74930
X8446Y66040
X6858Y53276
X6794Y59753
X6350Y63500
X12128Y71120
X11811Y68326
X17272Y68263
X18606Y59690
X20320Y89916
X50800Y78740
X50800Y75883
X44767Y68517
X47752Y70041
X16065Y77470
X11874Y49847
X13652Y47879
X15494Y49720
X5778Y28194
X15145Y58452
X27291Y54532
X29083Y67056
X29845Y67056
X46658Y54342
X48436Y38784
X48500Y29958
X3947Y57404
X13144Y54864
X8700Y82169
X31242Y4509
X53159Y57414
X25590Y9906
X26352Y9906
X26352Y9144
X25590Y9144
X52451Y85916
X52451Y86614
X16935Y69489
X10985Y77915
X29400Y62928
X53159Y56779
X37084Y105219
X25971Y4636
X38037Y43498
X18352Y3619
X19177Y3619
X20003Y3619
X25463Y4128
X24955Y3619
X23050Y66866
X23043Y68326
X23050Y67628
X52705Y68390
X42355Y61849
X49657Y68453
X48831Y4509
X12065Y6032
X31178Y11874
X13462Y6032
X12763Y6032
X31178Y11049
X31178Y12700
X26860Y15494
X46101Y61912
X38735Y59182
X39243Y62230
X41339Y71692
X47688Y58229
X34608Y3810
X34671Y7620
X43434Y54038
X48720Y56197
X12636Y68072
X14630Y67310
X9271Y53403
X9486Y59690
X39815Y8509
X43942Y8509
X50832Y88741
X12827Y98615
X28511Y50101
X25363Y73391
X20130Y31432
X19825Y49480
X37846Y29527
X46418Y58106
X45609Y58087
X48387Y60264
X49276Y60261
X46144Y56494
X46625Y65770
X20955Y33909
X37941Y41815
X20955Y37465
X39465Y43148
X42482Y45656
X49330Y52251
X52260Y55689
X51613Y60769
X23330Y85763
X25717Y86233
X40513Y77153
X51435Y98361
X39497Y77153
X50609Y98615
X32893Y90233
X34036Y99568
X36005Y105219
X36132Y100203
X36259Y102806
X42863Y77153
X51562Y82233
X23336Y83661
X51728Y66460
X51469Y54009
X50292Y66358
X37878Y32480
X21400Y32067
X11620Y28296
X14531Y31024
X43783Y68485
X50324Y69945
X3873Y55181
X7150Y85015
X7207Y86900
X52260Y76010
X21527Y89589
X32236Y89239
X45148Y99441
X3937Y56388
X7747Y84455
X7842Y87662
X22225Y88963
X50736Y71565
X49085Y61341
X50800Y68644
X32226Y88338
X46208Y99472
X4636Y54292
X9620Y58071
X45783Y69850
X45720Y68453
X30099Y57912
X35592Y65818
X32575Y55562
X34481Y62928
X26816Y70945
X53530Y88773
X23304Y88201
X19177Y80074
X50609Y93281
X29877Y86582
X50609Y94361
X28892Y86614
X44386Y55943
X46133Y64929
X29273Y78994
X28321Y78931
X23336Y84677
X39719Y99536
X22542Y80582
X7810Y89662
X23368Y91059
X7683Y94170
X40799Y99536
X44069Y77216
X51117Y81534
X24305Y68548
X10605Y4318
X42545Y66548
X49720Y72454
X41593Y63436
X50546Y73089
X20003Y13208
X14414Y9017
X14414Y14287
X9017Y12255
X7493Y12255
X8191Y12255
X8636Y26098
X8636Y25336
X9271Y25717
X23431Y73406
X27432Y50101
X19812Y68326
X23146Y4985
X20701Y68326
X23876Y4445
X52641Y66339
X48396Y71174
X36830Y70485
X13271Y74994
X14224Y4890
X14922Y4572
X14922Y5334
X10097Y41910
X14541Y50863
X19050Y99060
X13843Y98615
X55880Y13906
X21590Y20320
X55689Y58801
X54483Y58801
X53467Y62293
X53467Y64325
X55689Y67755
X54483Y67755
X51498Y62293
X53340Y54610
X52451Y60325
X51498Y65278
X46926Y61658
X33274Y64135
X31369Y64135
X31369Y66040
X33274Y66040
X28892Y75375
X45783Y53657
X31369Y73660
X33465Y72962
X32321Y69025
X45910Y4890
X6350Y13970
X1651Y25146
X1270Y60960
X1270Y102171
X11430Y106680
X6350Y106680
X30289Y62928
X43815Y60388
X53467Y66294
X53467Y60388
X51498Y64008
X48831Y64960
X33909Y68199
X42736Y99631
X23304Y78613
X30924Y83820
X24066Y8255
X29210Y16510
X26670Y3810
X18352Y9017
X22987Y21654
X14573Y72866
X15211Y65339
X42863Y67818
X47625Y68517
X13906Y70676
X13144Y69279
X38037Y77026
M30