<svg width="1857" height="1630" xmlns="http://www.w3.org/2000/svg" xmlns:xlink="http://www.w3.org/1999/xlink" overflow="hidden"><defs><clipPath id="clip0"><rect x="1142" y="-1390" width="1857" height="1630"/></clipPath></defs><g clip-path="url(#clip0)" transform="translate(-1142 1390)"><path d="M1420.5-578.5C1420.5-937.485 1711.29-1228.5 2070-1228.5 2428.71-1228.5 2719.5-937.485 2719.5-578.5 2719.5-219.515 2428.71 71.5 2070 71.5 1711.29 71.5 1420.5-219.515 1420.5-578.5Z" stroke="#FFFFFF" stroke-width="4.58333" stroke-miterlimit="8" fill="#EB0000" fill-rule="evenodd"/><path d="M1683.5-818.5C1683.5-890.297 1741.26-948.5 1812.5-948.5 1883.74-948.5 1941.5-890.297 1941.5-818.5 1941.5-746.703 1883.74-688.5 1812.5-688.5 1741.26-688.5 1683.5-746.703 1683.5-818.5Z" stroke="#FFFFFF" stroke-width="68.75" stroke-miterlimit="8" fill="#FFFFFF" fill-rule="evenodd"/><path d="M2067.5-536.166C2067.5-559.546 2086.45-578.5 2109.83-578.5L2312.17-578.5C2335.55-578.5 2354.5-559.546 2354.5-536.166L2354.5-366.834C2354.5-343.454 2335.55-324.5 2312.17-324.5L2109.83-324.5C2086.45-324.5 2067.5-343.454 2067.5-366.834Z" stroke="#FFFFFF" stroke-width="55" stroke-miterlimit="8" fill="#FFFFFF" fill-rule="evenodd"/><path d="M0 0 178.825 0.000360892" fill="#FFFFFF" fill-rule="evenodd" transform="matrix(-1 0 0 1 2067.32 -506.5)"/><path d="M5.54987e-05-27.5 178.825-27.4996C194.013-27.4996 206.325-15.1874 206.325 0.000416391 206.325 15.1882 194.012 27.5004 178.825 27.5004L-5.54987e-05 27.5C-15.1879 27.5-27.5 15.1878-27.5-5.54987e-05-27.5-15.1879-15.1878-27.5 5.54987e-05-27.5ZM178.825-54.9996C209.2-54.9996 233.825-30.3752 233.825 0.00047189 233.825 30.3761 209.2 55.0004 178.825 55.0004 148.449 55.0003 123.825 30.3759 123.825 0.000249895 123.825-30.3754 148.449-54.9997 178.825-54.9996Z" fill="#FFFFFF" transform="matrix(-1 0 0 1 2067.32 -506.5)"/><path d="M0 0 76.0032 77.9614" fill="#FFFFFF" fill-rule="evenodd" transform="matrix(-1 0 0 1 1964.5 -402.5)"/><path d="M19.6912-19.1966 95.6944 58.7649C106.296 69.64 106.075 87.0506 95.1998 97.6526 84.3246 108.255 66.914 108.033 56.3121 97.158L-19.6912 19.1966C-30.2931 8.32144-30.0717-9.08919-19.1966-19.6912-8.32144-30.2931 9.08919-30.0717 19.6912-19.1966ZM115.386 39.5683C136.589 61.3185 136.147 96.1398 114.396 117.344 92.6461 138.548 57.8248 138.105 36.6209 116.355 15.417 94.6043 15.8598 59.783 37.6101 38.5791 59.3603 17.3752 94.1816 17.818 115.386 39.5683Z" fill="#FFFFFF" transform="matrix(-1 0 0 1 1964.5 -402.5)"/><path d="M0 0 0.000360892 207.897" fill="#FFFFFF" fill-rule="evenodd" transform="matrix(1 0 0 -1 2276.5 -584.603)"/><path d="M27.5-4.77378e-05 27.5004 207.897C27.5004 223.085 15.1882 235.397 0.00040863 235.397-15.1874 235.397-27.4996 223.085-27.4996 207.897L-27.5 4.77378e-05C-27.5-15.1878-15.1879-27.5-4.77378e-05-27.5 15.1878-27.5 27.5-15.1879 27.5-4.77378e-05ZM55.0004 207.897C55.0004 238.273 30.3761 262.897 0.000456368 262.897-30.3752 262.897-54.9996 238.273-54.9996 207.897-54.9997 177.522-30.3754 152.897 0.000265417 152.897 30.3759 152.897 55.0003 177.521 55.0004 207.897Z" fill="#FFFFFF" transform="matrix(1 0 0 -1 2276.5 -584.603)"/><path d="M0 0 103.949 93.893" fill="#FFFFFF" fill-rule="evenodd" transform="matrix(-1 0 0 1 2146.45 -246.5)"/><path d="M18.4333-20.4074 122.382 73.4856C133.653 83.666 134.536 101.056 124.356 112.326 114.176 123.597 96.786 124.481 85.5153 114.3L-18.4333 20.4074C-29.704 10.227-30.5879-7.16259-20.4074-18.4333-10.227-29.704 7.16259-30.5879 18.4333-20.4074ZM140.815 53.0781C163.357 73.439 165.124 108.218 144.763 130.76 124.403 153.301 89.6234 155.069 67.082 134.708 44.5405 114.347 42.7728 79.5678 63.1337 57.0264 83.4946 34.485 118.274 32.7173 140.815 53.0781Z" fill="#FFFFFF" transform="matrix(-1 0 0 1 2146.45 -246.5)"/><path d="M1964.5-402.5 2067.32-402.5" stroke="#FFFFFF" stroke-width="55" stroke-linecap="round" stroke-miterlimit="8" fill="#FFFFFF" fill-rule="evenodd"/><path d="M2354.5-402.5 2482.39-402.5" fill="#FFFFFF" fill-rule="evenodd"/><path d="M2354.5-430 2482.39-430C2497.58-430 2509.89-417.687 2509.89-402.5 2509.89-387.312 2497.58-375 2482.39-375L2354.5-375C2339.31-375 2327-387.312 2327-402.5 2327-417.688 2339.31-430 2354.5-430ZM2482.39-457.5C2512.77-457.5 2537.39-432.875 2537.39-402.5 2537.39-372.124 2512.76-347.5 2482.39-347.5 2452.01-347.5 2427.39-372.124 2427.39-402.5 2427.39-432.875 2452.01-457.5 2482.39-457.5Z" fill="#FFFFFF"/><path d="M2148.55-584.903 2146.5-702.5" fill="#FFFFFF" fill-rule="evenodd"/><path d="M2121.05-584.424 2119-702.022C2118.74-717.207 2130.84-729.732 2146.02-729.996 2161.21-730.26 2173.73-718.164 2174-702.979L2176.04-585.381C2176.31-570.196 2164.21-557.671 2149.02-557.407 2133.84-557.143 2121.31-569.239 2121.05-584.424ZM2091.51-701.543C2090.98-731.914 2115.17-756.963 2145.54-757.492 2175.91-758.02 2200.96-733.828 2201.49-703.457 2202.02-673.086 2177.83-648.037 2147.46-647.508 2117.09-646.98 2092.04-671.172 2091.51-701.543Z" fill="#FFFFFF"/><path d="M0 0 0.000360892 77.9614" stroke="#FFFFFF" stroke-width="55" stroke-linecap="round" stroke-miterlimit="8" fill="#FFFFFF" fill-rule="evenodd" transform="matrix(1 0 0 -1 2146.5 -246.539)"/><path d="M2276.5-324.5 2276.5-168.577" fill="#FFFFFF" fill-rule="evenodd"/><path d="M2304-324.5 2304-168.577C2304-153.389 2291.69-141.077 2276.5-141.077 2261.31-141.077 2249-153.389 2249-168.577L2249-324.5C2249-339.688 2261.31-352 2276.5-352 2291.69-352 2304-339.688 2304-324.5ZM2331.5-168.577C2331.5-138.201 2306.88-113.577 2276.5-113.577 2246.12-113.577 2221.5-138.201 2221.5-168.577 2221.5-198.952 2246.12-223.577 2276.5-223.577 2306.88-223.577 2331.5-198.953 2331.5-168.577Z" fill="#FFFFFF"/><path d="M2354.5-506.5 2406.47-506.499" stroke="#FFFFFF" stroke-width="55" stroke-linecap="round" stroke-miterlimit="8" fill="#FFFFFF" fill-rule="evenodd"/><path d="M0 0 74.5048 77.9614" fill="#FFFFFF" fill-rule="evenodd" transform="matrix(1 0 0 -1 2407.5 -506.538)"/><path d="M19.8812-18.9997 94.386 58.9617C104.879 69.9418 104.485 87.3494 93.5045 97.8426 82.5244 108.336 65.1169 107.941 54.6236 96.9611L-19.8812 18.9997C-30.3744 8.01962-29.9798-9.38794-18.9997-19.8812-8.01962-30.3744 9.38794-29.9798 19.8812-18.9997ZM114.267 39.962C135.254 61.9222 134.464 96.7373 112.504 117.724 90.544 138.71 55.7289 137.921 34.7424 115.961 13.7559 94.0007 14.5452 59.1855 36.5054 38.1991 58.4655 17.2126 93.2807 18.0019 114.267 39.962Z" fill="#FFFFFF" transform="matrix(1 0 0 -1 2407.5 -506.538)"/><path d="M1357.31-182.158 1338.42-218.521 1321.13-256.168 1305.98-294.372 1292.87-332.925 1281.78-371.736 1272.64-410.861 1265.58-450.17 1260.43-489.597 1257.29-529.098 1256.05-568.431 1256.71-607.776 1259.25-646.94 1263.69-685.832 1269.96-724.408 1278.11-762.641 1288.02-800.386 1299.7-837.651 1313.21-874.318 1328.41-910.336 1345.39-945.599 1364.11-980.099 1384.45-1013.75 1406.46-1046.47 1430.16-1078.13 1455.48-1108.8 1482.45-1138.32 1510.97-1166.57 1541.06-1193.6 1572.72-1219.25 1605.88-1243.47 1640.57-1266.16 1676.57-1287.28 1702.33-1300.92 1728.3-1313.51 1754.6-1325.12 1781.16-1335.76 1807.99-1345.42 1835.08-1354.11 1862.32-1361.8 1889.74-1368.59 1917.36-1374.33 1945.07-1379.16 1972.95-1383.01 2000.89-1385.88 2028.8-1387.77 2056.84-1388.75 2084.85-1388.75 2112.8-1387.77 2140.71-1385.81 2168.56-1382.94 2196.32-1379.09 2223.97-1374.26 2251.41-1368.53 2278.72-1361.87 2305.83-1354.16 2332.61-1345.56 2359.23-1336.03 2385.53-1325.52 2411.56-1314.11 2437.28-1301.7 2463.15-1288.1 2534.64-1243.7C2550.76-1233.68 2555.72-1212.49 2545.7-1196.36 2535.68-1180.24 2514.49-1175.28 2498.36-1185.3L2427.93-1229.05 2430.07-1227.82 2405.82-1240.57 2406.88-1240.04 2382.26-1251.91 2383.38-1251.39 2358.44-1262.33 2359.5-1261.89 2334.31-1271.95 2335.48-1271.51 2309.98-1280.63 2311.05-1280.27 2285.36-1288.52 2286.47-1288.19 2260.54-1295.56 2261.79-1295.23 2235.66-1301.6 2236.78-1301.35 2210.47-1306.85 2211.59-1306.64 2185.09-1311.26 2186.27-1311.08 2159.71-1314.76 2160.91-1314.62 2134.23-1317.37 2135.35-1317.27 2108.6-1319.15 2109.8-1319.08 2083.05-1320.02 2084.25-1320 2057.44-1320 2058.64-1320.02 2031.76-1319.08 2032.89-1319.14 2006.14-1317.33 2007.33-1317.43 1980.58-1314.68 1981.77-1314.82 1955.08-1311.14 1956.27-1311.32 1929.71-1306.7 1930.81-1306.91 1904.38-1301.41 1905.64-1301.7 1879.39-1295.2 1880.46-1295.48 1854.34-1288.11 1855.49-1288.45 1829.55-1280.14 1830.71-1280.53 1805.02-1271.28 1806.15-1271.71 1780.72-1261.53 1781.83-1261.99 1756.64-1250.87 1757.75-1251.38 1732.87-1239.32 1733.95-1239.87 1709.39-1226.87 1710.71-1227.6 1676.08-1207.29 1677.5-1208.17 1644.25-1186.42 1645.71-1187.43 1613.96-1164.24 1615.33-1165.29 1585.02-1140.73 1586.34-1141.86 1557.53-1115.99 1558.76-1117.14 1531.44-1090.08 1532.63-1091.31 1506.81-1063.06 1507.95-1064.37 1483.7-1034.99 1484.71-1036.28 1462.02-1005.96 1463.02-1007.38 1441.96-976.064 1442.85-977.464 1423.35-945.214 1424.15-946.607 1406.21-913.545 1406.97-915.025 1390.72-881.275 1391.42-882.82 1376.86-848.32 1377.44-849.806 1364.51-814.681 1365.05-816.28 1353.86-780.592 1354.31-782.146 1344.81-745.959 1345.18-747.516 1337.37-710.891 1337.68-712.551 1331.68-675.613 1331.9-677.228 1327.65-639.978 1327.8-641.645 1325.36-604.145 1325.43-605.805 1324.81-568.117 1324.8-569.77 1325.98-532.083 1325.89-533.719 1328.89-495.906 1328.71-497.646 1333.65-459.895 1333.4-461.507 1340.15-423.882 1339.79-425.636 1348.54-388.198 1348.11-389.818 1358.74-352.631 1358.23-354.256 1370.79-317.318 1370.2-318.922 1384.7-282.36 1383.99-284.034 1400.55-247.972 1399.82-249.467 1418.32-213.842C1427.07-196.994 1420.5-176.242 1403.65-167.493 1386.81-158.744 1366.05-165.309 1357.31-182.158ZM2553.2-1272.64C2585.31-1252.37 2594.9-1209.91 2574.64-1177.8 2554.37-1145.69 2511.91-1136.1 2479.8-1156.36 2447.69-1176.63 2438.1-1219.09 2458.36-1251.2 2478.63-1283.31 2521.09-1292.9 2553.2-1272.64Z" fill="#EB0000"/><path d="M2783.69-967.842 2802.58-931.478 2819.87-893.831 2835.02-855.628 2848.13-817.075 2859.22-778.264 2868.36-739.139 2875.42-699.829 2880.57-660.403 2883.71-620.902 2884.95-581.569 2884.29-542.224 2881.75-503.06 2877.31-464.168 2871.04-425.592 2862.89-387.358 2852.98-349.614 2841.3-312.349 2827.79-275.681 2812.59-239.664 2795.61-204.401 2776.89-169.901 2756.55-136.253 2734.54-103.533 2710.84-71.872 2685.52-41.2001 2658.55-11.6824 2630.03 16.5745 2599.94 43.5959 2568.28 69.251 2535.12 93.4698 2500.43 116.163 2464.43 137.28 2438.67 150.916 2412.7 163.51 2386.4 175.125 2359.84 185.762 2333.01 195.424 2305.92 204.106 2278.68 211.796 2251.26 218.585 2223.64 224.332 2195.93 229.156 2168.05 233.009 2140.11 235.881 2112.2 237.772 2084.16 238.75 2056.15 238.75 2028.2 237.77 2000.29 235.814 1972.44 232.944 1944.68 229.091 1917.03 224.265 1889.59 218.531 1862.28 211.867 1835.17 204.156 1808.39 195.556 1781.77 186.029 1755.47 175.522 1729.44 164.107 1703.72 151.704 1677.85 138.102 1606.36 93.7008C1590.24 83.684 1585.28 62.4901 1595.3 46.3629 1605.32 30.2358 1626.51 25.2824 1642.64 35.2993L1713.07 79.0493 1710.93 77.8242 1735.18 90.5742 1734.12 90.0372 1758.74 101.912 1757.62 101.395 1782.56 112.332 1781.5 111.891 1806.69 121.953 1805.52 121.51 1831.02 130.635 1829.95 130.272 1855.64 138.522 1854.53 138.186 1880.46 145.561 1879.21 145.23 1905.34 151.605 1904.22 151.352 1930.53 156.852 1929.41 156.637 1955.91 161.262 1954.73 161.077 1981.29 164.764 1980.09 164.619 2006.77 167.369 2005.65 167.272 2032.4 169.147 2031.2 169.084 2057.95 170.021 2056.75 170 2083.56 170 2082.36 170.021 2109.24 169.083 2108.11 169.141 2134.86 167.329 2133.67 167.43 2160.42 164.68 2159.23 164.824 2185.92 161.136 2184.73 161.322 2211.29 156.697 2210.19 156.908 2236.62 151.408 2235.36 151.695 2261.61 145.195 2260.54 145.48 2286.66 138.105 2285.51 138.453 2311.45 130.14 2310.29 130.533 2335.98 121.283 2334.84 121.714 2360.28 111.527 2359.17 111.993 2384.36 100.868 2383.25 101.382 2408.13 89.3198 2407.04 89.8679 2431.61 76.8679 2430.29 77.6004 2464.92 57.2879 2463.49 58.1705 2496.74 36.4205 2495.29 37.4274 2527.04 14.24 2525.67 15.2925 2555.98-9.26999 2554.66-8.13802 2583.47-34.013 2582.24-32.8558 2609.55-59.9183 2608.37-58.6873 2634.19-86.9373 2633.05-85.634 2657.3-115.009 2656.29-113.723 2678.98-144.035 2677.98-142.623 2699.04-173.936 2698.15-172.536 2717.65-204.786 2716.85-203.392 2734.79-236.455 2734.03-234.975 2750.28-268.725 2749.58-267.18 2764.14-301.68 2763.56-300.193 2776.49-335.318 2775.95-333.72 2787.14-369.408 2786.69-367.853 2796.19-404.041 2795.82-402.484 2803.63-439.109 2803.32-437.449 2809.32-474.386 2809.1-472.772 2813.35-510.022 2813.2-508.355 2815.63-545.855 2815.57-544.195 2816.19-581.882 2816.2-580.23 2815.02-617.917 2815.11-616.281 2812.11-654.094 2812.29-652.354 2807.35-690.104 2807.6-688.492 2800.85-726.117 2801.21-724.364 2792.46-761.802 2792.88-760.181 2782.26-797.369 2782.77-795.744 2770.21-832.682 2770.8-831.078 2756.3-867.64 2757.01-865.966 2740.45-902.028 2741.18-900.533 2722.68-936.158C2713.93-953.006 2720.5-973.757 2737.35-982.507 2754.19-991.256 2774.94-984.691 2783.69-967.842ZM1587.8 122.636C1555.69 102.369 1546.1 59.9101 1566.36 27.8023 1586.63-4.30556 1629.09-13.9039 1661.2 6.36368 1693.31 26.6313 1702.9 69.09 1682.64 101.198 1662.37 133.306 1619.91 142.904 1587.8 122.636Z" fill="#EB0000"/></g></svg>