<svg width="7502" height="2504" xmlns="http://www.w3.org/2000/svg" xmlns:xlink="http://www.w3.org/1999/xlink" overflow="hidden"><defs><clipPath id="clip0"><rect x="1142" y="300" width="7502" height="2504"/></clipPath></defs><g clip-path="url(#clip0)" transform="translate(-1142 -300)"><path d="M1420.5 1348C1420.5 989.291 1711.29 698.5 2070 698.5 2428.71 698.5 2719.5 989.291 2719.5 1348 2719.5 1706.71 2428.71 1997.5 2070 1997.5 1711.29 1997.5 1420.5 1706.71 1420.5 1348Z" stroke="#FFFFFF" stroke-width="4.58333" stroke-miterlimit="8" fill="#EB0000" fill-rule="evenodd"/><path d="M1683.5 1108C1683.5 1036.48 1741.26 978.5 1812.5 978.5 1883.74 978.5 1941.5 1036.48 1941.5 1108 1941.5 1179.52 1883.74 1237.5 1812.5 1237.5 1741.26 1237.5 1683.5 1179.52 1683.5 1108Z" stroke="#FFFFFF" stroke-width="68.75" stroke-miterlimit="8" fill="#FFFFFF" fill-rule="evenodd"/><path d="M2067.5 1390.67C2067.5 1367.38 2086.38 1348.5 2109.67 1348.5L2312.33 1348.5C2335.62 1348.5 2354.5 1367.38 2354.5 1390.67L2354.5 1559.33C2354.5 1582.62 2335.62 1601.5 2312.33 1601.5L2109.67 1601.5C2086.38 1601.5 2067.5 1582.62 2067.5 1559.33Z" stroke="#FFFFFF" stroke-width="55" stroke-miterlimit="8" fill="#FFFFFF" fill-rule="evenodd"/><path d="M0 0 178.825 0.000360892" fill="#FFFFFF" fill-rule="evenodd" transform="matrix(-1 0 0 1 2067.32 1419.5)"/><path d="M5.54987e-05-27.5 178.825-27.4996C194.013-27.4996 206.325-15.1874 206.325 0.000416391 206.325 15.1882 194.012 27.5004 178.825 27.5004L-5.54987e-05 27.5C-15.1879 27.5-27.5 15.1878-27.5-5.54987e-05-27.5-15.1879-15.1878-27.5 5.54987e-05-27.5ZM178.825-54.9996C209.2-54.9996 233.825-30.3752 233.825 0.00047189 233.825 30.3761 209.2 55.0004 178.825 55.0004 148.449 55.0003 123.825 30.3759 123.825 0.000249895 123.825-30.3754 148.449-54.9997 178.825-54.9996Z" fill="#FFFFFF" transform="matrix(-1 0 0 1 2067.32 1419.5)"/><path d="M0 0 76.0032 77.9614" fill="#FFFFFF" fill-rule="evenodd" transform="matrix(-1 0 0 1 1964.5 1523.5)"/><path d="M19.6912-19.1966 95.6944 58.7649C106.296 69.64 106.075 87.0506 95.1998 97.6526 84.3246 108.255 66.914 108.033 56.3121 97.158L-19.6912 19.1966C-30.2931 8.32144-30.0717-9.08919-19.1966-19.6912-8.32144-30.2931 9.08919-30.0717 19.6912-19.1966ZM115.386 39.5683C136.589 61.3185 136.147 96.1398 114.396 117.344 92.6461 138.548 57.8248 138.105 36.6209 116.355 15.417 94.6043 15.8598 59.783 37.6101 38.5791 59.3603 17.3752 94.1816 17.818 115.386 39.5683Z" fill="#FFFFFF" transform="matrix(-1 0 0 1 1964.5 1523.5)"/><path d="M0 0 0.000360892 207.897" fill="#FFFFFF" fill-rule="evenodd" transform="matrix(1 0 0 -1 2276.5 1342.4)"/><path d="M27.5-4.77378e-05 27.5004 207.897C27.5004 223.085 15.1882 235.397 0.00040863 235.397-15.1874 235.397-27.4996 223.085-27.4996 207.897L-27.5 4.77378e-05C-27.5-15.1878-15.1879-27.5-4.77378e-05-27.5 15.1878-27.5 27.5-15.1879 27.5-4.77378e-05ZM55.0004 207.897C55.0004 238.273 30.3761 262.897 0.000456368 262.897-30.3752 262.897-54.9996 238.273-54.9996 207.897-54.9997 177.522-30.3754 152.897 0.000265417 152.897 30.3759 152.897 55.0003 177.521 55.0004 207.897Z" fill="#FFFFFF" transform="matrix(1 0 0 -1 2276.5 1342.4)"/><path d="M0 0 103.949 93.893" fill="#FFFFFF" fill-rule="evenodd" transform="matrix(-1 0 0 1 2146.45 1679.5)"/><path d="M18.4333-20.4074 122.382 73.4856C133.653 83.666 134.536 101.056 124.356 112.326 114.176 123.597 96.786 124.481 85.5153 114.3L-18.4333 20.4074C-29.704 10.227-30.5879-7.16259-20.4074-18.4333-10.227-29.704 7.16259-30.5879 18.4333-20.4074ZM140.815 53.0781C163.357 73.439 165.124 108.218 144.763 130.76 124.403 153.301 89.6234 155.069 67.082 134.708 44.5405 114.347 42.7728 79.5678 63.1337 57.0264 83.4946 34.485 118.274 32.7173 140.815 53.0781Z" fill="#FFFFFF" transform="matrix(-1 0 0 1 2146.45 1679.5)"/><path d="M1964.5 1523.5 2067.32 1523.5" stroke="#FFFFFF" stroke-width="55" stroke-linecap="round" stroke-miterlimit="8" fill="#FFFFFF" fill-rule="evenodd"/><path d="M2354.5 1523.5 2482.39 1523.5" fill="#FFFFFF" fill-rule="evenodd"/><path d="M2354.5 1496 2482.39 1496C2497.58 1496 2509.89 1508.31 2509.89 1523.5 2509.89 1538.69 2497.58 1551 2482.39 1551L2354.5 1551C2339.31 1551 2327 1538.69 2327 1523.5 2327 1508.31 2339.31 1496 2354.5 1496ZM2482.39 1468.5C2512.77 1468.5 2537.39 1493.12 2537.39 1523.5 2537.39 1553.88 2512.76 1578.5 2482.39 1578.5 2452.01 1578.5 2427.39 1553.88 2427.39 1523.5 2427.39 1493.12 2452.01 1468.5 2482.39 1468.5Z" fill="#FFFFFF"/><path d="M2148.55 1342.1 2146.5 1224.5" fill="#FFFFFF" fill-rule="evenodd"/><path d="M2121.05 1342.58 2119 1224.98C2118.74 1209.79 2130.84 1197.27 2146.02 1197 2161.21 1196.74 2173.73 1208.84 2174 1224.02L2176.04 1341.62C2176.31 1356.8 2164.21 1369.33 2149.02 1369.59 2133.84 1369.86 2121.31 1357.76 2121.05 1342.58ZM2091.51 1225.46C2090.98 1195.09 2115.17 1170.04 2145.54 1169.51 2175.91 1168.98 2200.96 1193.17 2201.49 1223.54 2202.02 1253.91 2177.83 1278.96 2147.46 1279.49 2117.09 1280.02 2092.04 1255.83 2091.51 1225.46Z" fill="#FFFFFF"/><path d="M0 0 0.000360892 77.9614" stroke="#FFFFFF" stroke-width="55" stroke-linecap="round" stroke-miterlimit="8" fill="#FFFFFF" fill-rule="evenodd" transform="matrix(1 0 0 -1 2146.5 1679.46)"/><path d="M2276.5 1601.5 2276.5 1757.42" fill="#FFFFFF" fill-rule="evenodd"/><path d="M2304 1601.5 2304 1757.42C2304 1772.61 2291.69 1784.92 2276.5 1784.92 2261.31 1784.92 2249 1772.61 2249 1757.42L2249 1601.5C2249 1586.31 2261.31 1574 2276.5 1574 2291.69 1574 2304 1586.31 2304 1601.5ZM2331.5 1757.42C2331.5 1787.8 2306.88 1812.42 2276.5 1812.42 2246.12 1812.42 2221.5 1787.8 2221.5 1757.42 2221.5 1727.05 2246.12 1702.42 2276.5 1702.42 2306.88 1702.42 2331.5 1727.05 2331.5 1757.42Z" fill="#FFFFFF"/><path d="M2354.5 1419.5 2406.47 1419.5" stroke="#FFFFFF" stroke-width="55" stroke-linecap="round" stroke-miterlimit="8" fill="#FFFFFF" fill-rule="evenodd"/><path d="M0 0 74.5048 77.9614" fill="#FFFFFF" fill-rule="evenodd" transform="matrix(1 0 0 -1 2407.5 1419.46)"/><path d="M19.8812-18.9997 94.386 58.9617C104.879 69.9418 104.485 87.3494 93.5045 97.8426 82.5244 108.336 65.1169 107.941 54.6236 96.9611L-19.8812 18.9997C-30.3744 8.01962-29.9798-9.38794-18.9997-19.8812-8.01962-30.3744 9.38794-29.9798 19.8812-18.9997ZM114.267 39.962C135.254 61.9222 134.464 96.7373 112.504 117.724 90.544 138.71 55.7289 137.921 34.7424 115.961 13.7559 94.0007 14.5452 59.1855 36.5054 38.1991 58.4655 17.2126 93.2807 18.0019 114.267 39.962Z" fill="#FFFFFF" transform="matrix(1 0 0 -1 2407.5 1419.46)"/><text fill="#1A1A1A" font-family="ublox,ublox_MSFontService,sans-serif" font-weight="700" font-size="1192" transform="matrix(1 0 0 1 2946.27 1760)">mazg.ch</text><path d="M1357.31 1743.84 1338.42 1707.48 1321.13 1669.83 1305.98 1631.63 1292.87 1593.07 1281.78 1554.26 1272.64 1515.14 1265.58 1475.83 1260.43 1436.4 1257.29 1396.9 1256.05 1357.57 1256.71 1318.22 1259.25 1279.06 1263.69 1240.17 1269.96 1201.59 1278.11 1163.36 1288.02 1125.61 1299.7 1088.35 1313.21 1051.68 1328.41 1015.66 1345.39 980.401 1364.11 945.901 1384.45 912.253 1406.46 879.533 1430.16 847.872 1455.48 817.2 1482.45 787.683 1510.97 759.426 1541.06 732.404 1572.72 706.749 1605.88 682.53 1640.57 659.837 1676.57 638.72 1702.33 625.085 1728.3 612.491 1754.6 600.875 1781.16 590.239 1807.99 580.576 1835.08 571.894 1862.32 564.204 1889.74 557.415 1917.36 551.669 1945.07 546.844 1972.95 542.992 2000.89 540.119 2028.8 538.228 2056.84 537.25 2084.85 537.25 2112.8 538.23 2140.71 540.186 2168.56 543.056 2196.32 546.909 2223.97 551.735 2251.41 557.469 2278.72 564.134 2305.83 571.844 2332.61 580.445 2359.23 589.971 2385.53 600.478 2411.56 611.894 2437.28 624.297 2463.15 637.898 2534.64 682.299C2550.76 692.316 2555.72 713.51 2545.7 729.637 2535.68 745.764 2514.49 750.718 2498.36 740.701L2427.93 696.951 2430.07 698.176 2405.82 685.426 2406.88 685.963 2382.26 674.088 2383.38 674.605 2358.44 663.668 2359.5 664.11 2334.31 654.047 2335.48 654.49 2309.98 645.365 2311.05 645.729 2285.36 637.479 2286.47 637.815 2260.54 630.44 2261.79 630.77 2235.66 624.395 2236.78 624.648 2210.47 619.148 2211.59 619.363 2185.09 614.738 2186.27 614.924 2159.71 611.236 2160.91 611.382 2134.23 608.632 2135.35 608.729 2108.6 606.854 2109.8 606.917 2083.05 605.979 2084.25 606 2057.44 606 2058.64 605.979 2031.76 606.917 2032.89 606.859 2006.14 608.672 2007.33 608.57 1980.58 611.32 1981.77 611.177 1955.08 614.864 1956.27 614.678 1929.71 619.303 1930.81 619.092 1904.38 624.592 1905.64 624.305 1879.39 630.805 1880.46 630.52 1854.34 637.895 1855.49 637.548 1829.55 645.86 1830.71 645.467 1805.02 654.717 1806.15 654.286 1780.72 664.474 1781.83 664.007 1756.64 675.132 1757.75 674.618 1732.87 686.68 1733.95 686.132 1709.39 699.132 1710.71 698.4 1676.08 718.712 1677.5 717.83 1644.25 739.58 1645.71 738.573 1613.96 761.76 1615.33 760.708 1585.02 785.27 1586.34 784.138 1557.53 810.013 1558.76 808.856 1531.44 835.918 1532.63 834.688 1506.81 862.938 1507.95 861.634 1483.7 891.009 1484.71 889.723 1462.02 920.035 1463.02 918.624 1441.96 949.936 1442.85 948.536 1423.35 980.786 1424.15 979.393 1406.21 1012.46 1406.97 1010.98 1390.72 1044.73 1391.42 1043.18 1376.86 1077.68 1377.44 1076.19 1364.51 1111.32 1365.05 1109.72 1353.86 1145.41 1354.31 1143.85 1344.81 1180.04 1345.18 1178.48 1337.37 1215.11 1337.68 1213.45 1331.68 1250.39 1331.9 1248.77 1327.65 1286.02 1327.8 1284.35 1325.36 1321.85 1325.43 1320.2 1324.81 1357.88 1324.8 1356.23 1325.98 1393.92 1325.89 1392.28 1328.89 1430.09 1328.71 1428.35 1333.65 1466.1 1333.4 1464.49 1340.15 1502.12 1339.79 1500.36 1348.54 1537.8 1348.11 1536.18 1358.74 1573.37 1358.23 1571.74 1370.79 1608.68 1370.2 1607.08 1384.7 1643.64 1383.99 1641.97 1400.55 1678.03 1399.82 1676.53 1418.32 1712.16C1427.07 1729.01 1420.5 1749.76 1403.65 1758.51 1386.81 1767.26 1366.05 1760.69 1357.31 1743.84ZM2553.2 653.364C2585.31 673.631 2594.9 716.09 2574.64 748.198 2554.37 780.306 2511.91 789.904 2479.8 769.637 2447.69 749.369 2438.1 706.91 2458.36 674.802 2478.63 642.695 2521.09 633.096 2553.2 653.364Z" fill="#EB0000"/><path d="M2783.69 958.158 2802.58 994.522 2819.87 1032.17 2835.02 1070.37 2848.13 1108.93 2859.22 1147.74 2868.36 1186.86 2875.42 1226.17 2880.57 1265.6 2883.71 1305.1 2884.95 1344.43 2884.29 1383.78 2881.75 1422.94 2877.31 1461.83 2871.04 1500.41 2862.89 1538.64 2852.98 1576.39 2841.3 1613.65 2827.79 1650.32 2812.59 1686.34 2795.61 1721.6 2776.89 1756.1 2756.55 1789.75 2734.54 1822.47 2710.84 1854.13 2685.52 1884.8 2658.55 1914.32 2630.03 1942.57 2599.94 1969.6 2568.28 1995.25 2535.12 2019.47 2500.43 2042.16 2464.43 2063.28 2438.67 2076.92 2412.7 2089.51 2386.4 2101.12 2359.84 2111.76 2333.01 2121.42 2305.92 2130.11 2278.68 2137.8 2251.26 2144.59 2223.64 2150.33 2195.93 2155.16 2168.05 2159.01 2140.11 2161.88 2112.2 2163.77 2084.16 2164.75 2056.15 2164.75 2028.2 2163.77 2000.29 2161.81 1972.44 2158.94 1944.68 2155.09 1917.03 2150.26 1889.59 2144.53 1862.28 2137.87 1835.17 2130.16 1808.39 2121.56 1781.77 2112.03 1755.47 2101.52 1729.44 2090.11 1703.72 2077.7 1677.85 2064.1 1606.36 2019.7C1590.24 2009.68 1585.28 1988.49 1595.3 1972.36 1605.32 1956.24 1626.51 1951.28 1642.64 1961.3L1713.07 2005.05 1710.93 2003.82 1735.18 2016.57 1734.12 2016.04 1758.74 2027.91 1757.62 2027.39 1782.56 2038.33 1781.5 2037.89 1806.69 2047.95 1805.52 2047.51 1831.02 2056.63 1829.95 2056.27 1855.64 2064.52 1854.53 2064.19 1880.46 2071.56 1879.21 2071.23 1905.34 2077.6 1904.22 2077.35 1930.53 2082.85 1929.41 2082.64 1955.91 2087.26 1954.73 2087.08 1981.29 2090.76 1980.09 2090.62 2006.77 2093.37 2005.65 2093.27 2032.4 2095.15 2031.2 2095.08 2057.95 2096.02 2056.75 2096 2083.56 2096 2082.36 2096.02 2109.24 2095.08 2108.11 2095.14 2134.86 2093.33 2133.67 2093.43 2160.42 2090.68 2159.23 2090.82 2185.92 2087.14 2184.73 2087.32 2211.29 2082.7 2210.19 2082.91 2236.62 2077.41 2235.36 2077.7 2261.61 2071.2 2260.54 2071.48 2286.66 2064.11 2285.51 2064.45 2311.45 2056.14 2310.29 2056.53 2335.98 2047.28 2334.84 2047.71 2360.28 2037.53 2359.17 2037.99 2384.36 2026.87 2383.25 2027.38 2408.13 2015.32 2407.04 2015.87 2431.61 2002.87 2430.29 2003.6 2464.92 1983.29 2463.49 1984.17 2496.74 1962.42 2495.29 1963.43 2527.04 1940.24 2525.67 1941.29 2555.98 1916.73 2554.66 1917.86 2583.47 1891.99 2582.24 1893.14 2609.55 1866.08 2608.37 1867.31 2634.19 1839.06 2633.05 1840.37 2657.3 1810.99 2656.29 1812.28 2678.98 1781.96 2677.98 1783.38 2699.04 1752.06 2698.15 1753.46 2717.65 1721.21 2716.85 1722.61 2734.79 1689.55 2734.03 1691.03 2750.28 1657.28 2749.58 1658.82 2764.14 1624.32 2763.56 1625.81 2776.49 1590.68 2775.95 1592.28 2787.14 1556.59 2786.69 1558.15 2796.19 1521.96 2795.82 1523.52 2803.63 1486.89 2803.32 1488.55 2809.32 1451.61 2809.1 1453.23 2813.35 1415.98 2813.2 1417.65 2815.63 1380.15 2815.57 1381.8 2816.19 1344.12 2816.2 1345.77 2815.02 1308.08 2815.11 1309.72 2812.11 1271.91 2812.29 1273.65 2807.35 1235.9 2807.6 1237.51 2800.85 1199.88 2801.21 1201.64 2792.46 1164.2 2792.88 1165.82 2782.26 1128.63 2782.77 1130.26 2770.21 1093.32 2770.8 1094.92 2756.3 1058.36 2757.01 1060.03 2740.45 1023.97 2741.18 1025.47 2722.68 989.842C2713.93 972.994 2720.5 952.243 2737.35 943.493 2754.19 934.744 2774.94 941.309 2783.69 958.158ZM1587.8 2048.64C1555.69 2028.37 1546.1 1985.91 1566.36 1953.8 1586.63 1921.69 1629.09 1912.1 1661.2 1932.36 1693.31 1952.63 1702.9 1995.09 1682.64 2027.2 1662.37 2059.31 1619.91 2068.9 1587.8 2048.64Z" fill="#EB0000"/></g></svg>